<svg id="Layer_1" data-name="Layer 1" xmlns="http://www.w3.org/2000/svg" viewBox="0 0 70 70"><defs><style>.cls-1{fill:#5f9557;}.cls-2{fill:#fff;}</style></defs><title>Artboard 11 copy 6</title><circle class="cls-1" cx="35" cy="35" r="28.4"/><path class="cls-2" d="M35,22.59h0A12.44,12.44,0,0,0,24.92,42.33L23.37,47l4.78-1.53a12.38,12.38,0,0,0,6.65,2.06,12.45,12.45,0,1,0,.2-24.9Zm7.25,17.54a3.54,3.54,0,0,1-2.45,1.76c-.65.14-1.5.25-4.36-.94-3.66-1.51-6-5.23-6.2-5.47a7.22,7.22,0,0,1-1.47-3.76,4,4,0,0,1,1.27-3,1.8,1.8,0,0,1,1.27-.45l.42,0c.37,0,.55,0,.79.61.3.73,1,2.51,1.12,2.7a.71.71,0,0,1,0,.67,2.26,2.26,0,0,1-.4.57c-.18.21-.36.37-.54.6s-.36.41-.15.78a11.19,11.19,0,0,0,2,2.51,9.37,9.37,0,0,0,2.92,1.8.81.81,0,0,0,.88-.14,14.8,14.8,0,0,0,1-1.29.7.7,0,0,1,.89-.27c.34.12,2.12,1,2.49,1.18s.6.27.69.42A3.07,3.07,0,0,1,42.25,40.13Z"/></svg>