<svg id="Layer_1" data-name="Layer 1" xmlns="http://www.w3.org/2000/svg" viewBox="0 0 70 70"><defs><style>.cls-1{fill:#c72127;}.cls-2{fill:#fff;}</style></defs><title>Artboard 11 copy 2</title><circle class="cls-1" cx="35" cy="35" r="28.4"/><g id="Youtube"><path class="cls-2" d="M46.94,27.14A3.79,3.79,0,0,0,44.28,26c-3.71-.27-9.27-.27-9.27-.27h0s-5.56,0-9.27.27a3.79,3.79,0,0,0-2.66,1.13,5.75,5.75,0,0,0-1,2.63,41,41,0,0,0-.26,4.3v2a41,41,0,0,0,.26,4.3,5.81,5.81,0,0,0,1,2.64A4.48,4.48,0,0,0,26,44.16c2.12.21,9,.27,9,.27s5.57,0,9.28-.28A3.77,3.77,0,0,0,46.94,43,5.81,5.81,0,0,0,48,40.39a41,41,0,0,0,.26-4.3v-2a41,41,0,0,0-.26-4.3A5.75,5.75,0,0,0,46.94,27.14ZM32.48,38.45V31l7.13,3.75Z"/></g></svg>