<svg width="75" height="75" viewBox="0 0 75 75" fill="none" xmlns="http://www.w3.org/2000/svg">
<path d="M67.7414 53.8075H5.16181C4.34759 53.8075 3.68701 53.1469 3.68701 52.3327V24.2807H66.4429V54.9677C66.4429 55.9817 67.2725 56.8112 68.2864 56.8112C69.3003 56.8112 70.1299 55.9817 70.1299 54.9677V14.6791C70.1299 11.8371 67.8102 9.51733 64.9681 9.51733H5.16181C2.30438 9.51733 0 11.8371 0 14.6791V52.3327C0 55.1748 2.31974 57.4945 5.16181 57.4945H67.7568C68.7707 57.4945 69.6003 56.6649 69.6003 55.651C69.6003 54.6371 68.7707 53.8075 67.7414 53.8075ZM5.16181 13.2043H64.9681C65.7823 13.2043 66.4429 13.8649 66.4429 14.6791V20.5937H3.67164V14.6791C3.67164 13.8649 4.34759 13.2043 5.16181 13.2043Z" fill="black"/>
<path d="M36.9008 37.9687C36.9008 36.9548 36.0712 36.1252 35.0573 36.1252H12.9045C11.8906 36.1252 11.061 36.9548 11.061 37.9687C11.061 38.9827 11.8906 39.8123 12.9045 39.8123H35.0573C36.0866 39.8123 36.9008 38.9827 36.9008 37.9687Z" fill="black"/>
<path d="M12.9045 42.7311C11.8906 42.7311 11.061 43.5607 11.061 44.5746C11.061 45.5886 11.8906 46.4181 12.9045 46.4181H21.7687C22.7826 46.4181 23.6122 45.5886 23.6122 44.5746C23.6122 43.5607 22.7826 42.7311 21.7687 42.7311H12.9045Z" fill="black"/>
<path d="M12.6892 33.1296H34.842C35.8559 33.1296 36.6855 32.3 36.6855 31.2861C36.6855 30.2721 35.8559 29.4426 34.842 29.4426H12.6892C11.6753 29.4426 10.8457 30.2721 10.8457 31.2861C10.8457 32.3 11.6599 33.1296 12.6892 33.1296Z" fill="black"/>
</svg>
