<svg width="65" height="68" viewBox="0 0 65 68" fill="none" xmlns="http://www.w3.org/2000/svg">
<g clip-path="url(#clip0)">
<path d="M59.0783 5.98195L33.2637 0.0468806C32.997 -0.014586 32.7207 -0.0155194 32.4535 0.0444806L5.93175 5.97968C5.05004 6.17688 4.41992 6.99208 4.41992 7.93541V41.8433C4.41992 58.2201 30.7784 67.5117 31.9005 67.8994C32.2896 68.0338 32.71 68.0338 33.0991 67.8994C34.2211 67.5118 60.5797 58.2201 60.5797 41.8433V7.93528C60.5797 6.99621 59.9552 6.18355 59.0783 5.98195ZM56.7561 41.8433C56.7561 54.1517 36.2896 62.4505 32.4984 63.8813C23.2059 60.3889 8.24345 52.176 8.24345 41.8433V9.55275L32.8479 4.04661L56.7561 9.54341V41.8433Z" fill="black"/>
<path d="M32.3512 9.55028L15.3112 13.1261C14.4181 13.3135 13.7754 14.1341 13.7754 15.0871V39.6844C13.7754 48.1919 24.3771 53.8689 32.011 55.9879C32.331 56.0765 32.6689 56.0767 32.9894 55.9879C40.6284 53.8675 51.225 48.1964 51.225 39.6844V15.0871C51.225 14.1381 50.5874 13.3197 49.699 13.1283L33.1131 9.55228C32.8619 9.49814 32.6027 9.49748 32.3512 9.55028ZM47.4014 16.7169V39.6845C47.4014 45.8175 38.0943 50.2235 32.4992 51.9741C26.8803 50.2207 17.5989 45.8059 17.5989 39.6845V16.7259L32.7221 13.5521L47.4014 16.7169Z" fill="black"/>
<path d="M30.588 21.0352V22.6758C27.381 22.6524 25.0044 25.3238 25.0044 28.4276C25.0044 31.5994 27.471 34.18 30.5029 34.18H34.4967C35.4203 34.18 36.1718 34.9661 36.1718 35.9322C36.1718 36.9016 35.4217 37.6845 34.4972 37.6845C34.493 37.6845 34.4887 37.6845 34.4843 37.6844L30.3033 37.6521C29.7939 37.6482 29.3033 37.4856 28.8845 37.1816C28.0168 36.552 26.8258 36.7773 26.2241 37.6849C25.6223 38.5925 25.8377 39.8385 26.7052 40.4682C27.9709 41.3866 29.1745 41.6436 30.588 41.6545V43.3248C30.588 44.4293 31.444 45.3248 32.4998 45.3248C33.5556 45.3248 34.4115 44.4293 34.4115 43.3248V41.684C37.6187 41.7073 39.9952 39.0361 39.9952 35.9322C39.9952 32.7605 37.5286 30.18 34.4966 30.18H30.5028C29.5792 30.18 28.8278 29.394 28.8278 28.4276C28.8278 27.46 29.5761 26.6753 30.5024 26.6753C30.5066 26.6753 30.5109 26.6753 30.5151 26.6754L34.3473 26.705C35.0348 26.7104 35.6985 27.0142 36.1683 27.5388C36.8905 28.3448 38.1002 28.3858 38.8705 27.6305C39.641 26.8752 39.6802 25.6096 38.9582 24.8036C37.7838 23.4925 36.1283 22.7298 34.4113 22.7062V21.035C34.4113 19.9305 33.5553 19.035 32.4995 19.035C31.444 19.0352 30.588 19.9306 30.588 21.0352Z" fill="black"/>
</g>
<defs>
<clipPath id="clip0">
<rect width="65" height="68" fill="white"/>
</clipPath>
</defs>
</svg>
