<svg id="Layer_1" data-name="Layer 1" xmlns="http://www.w3.org/2000/svg" viewBox="0 0 70 70"><defs><style>.cls-1{fill:#2a5c83;}.cls-2{fill:#fff;}</style></defs><title>Artboard 11 copy 3</title><circle class="cls-1" cx="35" cy="35" r="28.4"/><path id="Instagram" class="cls-2" d="M43.14,23.85H26.24a2.59,2.59,0,0,0-2.6,2.6v16.9a2.59,2.59,0,0,0,2.59,2.59h16.9a2.59,2.59,0,0,0,2.6-2.6V26.44A2.59,2.59,0,0,0,43.14,23.85ZM40.73,27h1.79a.67.67,0,0,1,.68.68v1.79a.67.67,0,0,1-.68.68H40.73a.68.68,0,0,1-.68-.68V27.69A.68.68,0,0,1,40.73,27ZM35,30.83A4.2,4.2,0,1,1,30.82,35,4.2,4.2,0,0,1,35,30.83Zm8.12,13.22H26.85a.69.69,0,0,1-.69-.69v-10h2.72a4.07,4.07,0,0,0-.47,2,6.62,6.62,0,0,0,13.23,0,3.36,3.36,0,0,0-.52-2h2.72v10A.69.69,0,0,1,43.15,44.05Z"/></svg>