<svg width="225" height="61" viewBox="0 0 225 61" fill="none" xmlns="http://www.w3.org/2000/svg">
<path d="M58.7237 51.6556C58.6487 51.5774 58.6113 51.4992 58.6113 51.3818V48.2135H57.5998C57.3751 48.2135 57.2627 48.0962 57.2627 47.9006C57.2627 47.705 57.3751 47.5877 57.5998 47.5877H60.3719C60.5967 47.5877 60.7091 47.705 60.7091 47.9006C60.7091 48.0962 60.5967 48.2135 60.3719 48.2135H59.3605V51.3818C59.3605 51.4992 59.323 51.5774 59.2481 51.6556C59.1732 51.7339 59.0983 51.773 58.9859 51.773C58.8735 51.7338 58.7986 51.6947 58.7237 51.6556Z" fill="#4D4D4D"/>
<path d="M61.7954 51.3419C61.4957 51.0289 61.3833 50.6378 61.3833 50.0511V47.9389C61.3833 47.8215 61.4208 47.7433 61.4957 47.6651C61.5706 47.5868 61.6455 47.5477 61.7579 47.5477C61.8703 47.5477 61.9452 47.5868 62.0201 47.6651C62.095 47.7433 62.1325 47.8215 62.1325 47.9389V50.0902C62.1325 50.4422 62.2074 50.716 62.3573 50.9116C62.5071 51.1072 62.7693 51.1854 63.069 51.1854C63.3687 51.1854 63.5935 51.1072 63.7808 50.9116C63.9306 50.716 64.0055 50.4422 64.0055 50.0902V47.9389C64.0055 47.8215 64.043 47.7433 64.1179 47.6651C64.1928 47.5868 64.2677 47.5477 64.3801 47.5477C64.4925 47.5477 64.5674 47.5868 64.6424 47.6651C64.7173 47.7433 64.7547 47.8215 64.7547 47.9389V50.0511C64.7547 50.5987 64.6049 51.0289 64.3427 51.3419C64.0804 51.6548 63.6684 51.7721 63.1065 51.7721C62.4697 51.7721 62.0576 51.6157 61.7954 51.3419Z" fill="#4D4D4D"/>
<path d="M66.2907 51.6548C66.0285 51.5766 65.8412 51.4592 65.6539 51.3419C65.579 51.2636 65.5415 51.1854 65.5415 51.0681C65.5415 50.9898 65.579 50.9116 65.6164 50.8725C65.6539 50.8334 65.7288 50.7943 65.7663 50.7943C65.8412 50.7943 65.9161 50.8334 65.991 50.8725C66.1409 50.9898 66.3282 51.0681 66.5155 51.1463C66.7028 51.1854 66.8901 51.2245 67.1149 51.2245C67.3771 51.2245 67.6018 51.1854 67.7517 51.0681C67.9015 50.9507 67.9765 50.8334 67.9765 50.6378C67.9765 50.4813 67.9015 50.364 67.7892 50.2858C67.6768 50.2075 67.4145 50.1293 67.1149 50.0511C66.7777 49.9728 66.5155 49.8946 66.3282 49.7773C66.1409 49.6599 65.9536 49.5426 65.8786 49.3861C65.8037 49.2297 65.7288 49.0341 65.7288 48.7994C65.7288 48.5647 65.8037 48.33 65.9161 48.1344C66.0285 47.9389 66.2158 47.7824 66.478 47.7042C66.7028 47.5868 66.965 47.5477 67.2647 47.5477C67.7892 47.5477 68.2387 47.7042 68.5758 47.978C68.6133 48.0171 68.6508 48.0562 68.6882 48.0953C68.7257 48.1344 68.7257 48.1735 68.7257 48.2518C68.7257 48.33 68.6882 48.4082 68.6508 48.4474C68.6133 48.5256 68.5384 48.5256 68.5009 48.5256C68.4634 48.5256 68.426 48.5256 68.3885 48.5256C68.3511 48.5256 68.3136 48.4865 68.2761 48.4474C68.1263 48.33 67.9765 48.2518 67.8266 48.1735C67.6768 48.1344 67.4895 48.0953 67.3022 48.0953C67.0399 48.0953 66.8526 48.1344 66.7028 48.2518C66.5529 48.3691 66.478 48.5256 66.478 48.682C66.478 48.8385 66.5529 48.9558 66.6653 49.0341C66.7777 49.1123 67.0025 49.1905 67.3396 49.2688C67.6768 49.347 67.939 49.4252 68.1638 49.5426C68.3885 49.6208 68.5384 49.7773 68.6508 49.8946C68.7631 50.0511 68.8006 50.2466 68.8006 50.4422C68.8006 50.6769 68.7257 50.9116 68.6133 51.0681C68.5009 51.2636 68.3136 51.381 68.0514 51.4983C67.7892 51.6157 67.5644 51.6548 67.2272 51.6548C66.8152 51.7721 66.5529 51.733 66.2907 51.6548Z" fill="#4D4D4D"/>
<path d="M71.46 51.6549C71.3851 51.5767 71.3477 51.4984 71.3477 51.3811V47.939C71.3477 47.8216 71.3851 47.7434 71.4226 47.6652C71.46 47.5869 71.5724 47.5869 71.6848 47.5869H73.0709C73.4829 47.5869 73.8201 47.7043 74.0449 47.8998C74.2696 48.1345 74.382 48.4475 74.382 48.8386C74.382 49.2298 74.2696 49.5427 74.0449 49.7774C73.8201 50.0121 73.4829 50.1294 73.0709 50.1294H72.0594V51.3811C72.0594 51.4984 72.022 51.5767 71.947 51.6549C71.8721 51.7331 71.7972 51.7722 71.6848 51.7722C71.6099 51.7331 71.4975 51.7331 71.46 51.6549ZM73.7452 48.8386C73.7452 48.3692 73.4829 48.1736 72.9959 48.1736H72.0969V49.5427H72.9959C73.4829 49.5427 73.7452 49.308 73.7452 48.8386Z" fill="#4D4D4D"/>
<path d="M78.5403 51.4594C78.5403 51.5376 78.5029 51.6159 78.428 51.6941C78.353 51.7723 78.2781 51.7723 78.1657 51.7723C78.0908 51.7723 78.0534 51.7723 77.9784 51.7332C77.941 51.6941 77.8661 51.655 77.8286 51.6159L77.0794 50.4424C77.0045 50.3251 76.9295 50.2468 76.8546 50.1686C76.7797 50.0904 76.6673 50.0904 76.5175 50.0904H76.0305V51.4203C76.0305 51.5376 75.993 51.6159 75.9181 51.6941C75.8432 51.7723 75.7682 51.8114 75.6559 51.8114C75.5435 51.8114 75.4686 51.7723 75.3936 51.6941C75.3187 51.6159 75.2812 51.5376 75.2812 51.4203V47.9782C75.2812 47.8608 75.3187 47.7826 75.3562 47.7044C75.3936 47.6261 75.506 47.6261 75.6184 47.6261H77.0419C77.4914 47.6261 77.8286 47.7435 78.0534 47.9391C78.2781 48.1346 78.3905 48.4475 78.3905 48.8387C78.3905 49.1516 78.3156 49.4254 78.1283 49.621C77.941 49.8166 77.7162 49.973 77.3791 50.0121C77.4914 50.0513 77.5664 50.0904 77.6787 50.1686C77.7537 50.2468 77.8286 50.3251 77.9035 50.4815L78.428 51.3029C78.5029 51.3029 78.5403 51.3812 78.5403 51.4594ZM77.5664 49.3081C77.6787 49.1907 77.7537 49.0343 77.7537 48.7996C77.7537 48.5649 77.6787 48.4084 77.5664 48.2911C77.454 48.1737 77.2292 48.1346 76.967 48.1346H76.0305V49.4254H76.967C77.2292 49.4645 77.4165 49.4254 77.5664 49.3081Z" fill="#4D4D4D"/>
<path d="M80.1888 51.4984C79.8891 51.342 79.7018 51.0682 79.5519 50.7552C79.4021 50.4423 79.3271 50.0512 79.3271 49.6209C79.3271 49.1906 79.4021 48.7995 79.5519 48.4866C79.7018 48.1736 79.9265 47.939 80.1888 47.7434C80.451 47.5478 80.8256 47.4696 81.2002 47.4696C81.5748 47.4696 81.912 47.5478 82.2117 47.7434C82.5114 47.939 82.6987 48.1736 82.8485 48.4866C82.9983 48.7995 83.0733 49.1906 83.0733 49.6209C83.0733 50.0512 82.9983 50.4423 82.8485 50.7552C82.6987 51.0682 82.4739 51.342 82.2117 51.4984C81.912 51.6549 81.6123 51.7722 81.2002 51.7722C80.8256 51.7722 80.4884 51.694 80.1888 51.4984ZM82.0618 50.7552C82.2491 50.4814 82.3615 50.1294 82.3615 49.6209C82.3615 49.1124 82.2491 48.7604 82.0618 48.4866C81.8745 48.2128 81.5748 48.0954 81.2002 48.0954C80.8256 48.0954 80.5634 48.2128 80.3386 48.4866C80.1513 48.7604 80.0389 49.1124 80.0389 49.6209C80.0389 50.1294 80.1513 50.4814 80.3386 50.7552C80.5259 51.029 80.8256 51.1464 81.2002 51.1464C81.5748 51.1464 81.8371 51.029 82.0618 50.7552Z" fill="#4D4D4D"/>
<path d="M84.1594 51.6158C84.0845 51.5375 84.0845 51.4593 84.0845 51.342V47.939C84.0845 47.8216 84.1219 47.7434 84.1594 47.6652C84.1969 47.5869 84.3092 47.5869 84.4216 47.5869H85.5454C86.1822 47.5869 86.7067 47.7825 87.0438 48.1345C87.381 48.4866 87.5683 48.9951 87.5683 49.66C87.5683 50.325 87.381 50.8335 87.0438 51.1855C86.7067 51.5375 86.1822 51.7331 85.5454 51.7331H84.4216C84.3092 51.7331 84.1969 51.694 84.1594 51.6158ZM86.8191 49.66C86.8191 48.6821 86.3695 48.2128 85.4705 48.2128H84.7962V51.1073H85.4705C86.3695 51.1073 86.8191 50.5988 86.8191 49.66Z" fill="#4D4D4D"/>
<path d="M88.9545 51.3419C88.6549 51.0289 88.5425 50.6378 88.5425 50.0511V47.9389C88.5425 47.8215 88.5799 47.7433 88.6549 47.6651C88.7298 47.5868 88.8047 47.5477 88.9171 47.5477C89.0295 47.5477 89.1044 47.5868 89.1793 47.6651C89.2542 47.7433 89.2917 47.8215 89.2917 47.9389V50.0902C89.2917 50.4422 89.3666 50.716 89.5165 50.9116C89.6663 51.1072 89.9285 51.1854 90.2282 51.1854C90.5279 51.1854 90.7526 51.1072 90.9399 50.9116C91.0898 50.716 91.1647 50.4422 91.1647 50.0902V47.9389C91.1647 47.8215 91.2022 47.7433 91.2771 47.6651C91.352 47.5868 91.4269 47.5477 91.5393 47.5477C91.6517 47.5477 91.7266 47.5868 91.8015 47.6651C91.8765 47.7433 91.9139 47.8215 91.9139 47.9389V50.0511C91.9139 50.5987 91.7641 51.0289 91.5018 51.3419C91.2396 51.6548 90.8276 51.7721 90.2657 51.7721C89.6288 51.7721 89.2168 51.6157 88.9545 51.3419Z" fill="#4D4D4D"/>
<path d="M93.6745 51.4984C93.3748 51.342 93.15 51.0682 93.0002 50.7552C92.8503 50.4423 92.7754 50.0512 92.7754 49.6209C92.7754 49.1906 92.8503 48.7995 93.0002 48.4866C93.15 48.1736 93.3748 47.939 93.6745 47.7434C93.9742 47.5478 94.3113 47.4696 94.6859 47.4696C94.9481 47.4696 95.1729 47.5087 95.3977 47.5869C95.6224 47.6652 95.8097 47.7825 95.9596 47.8998C95.997 47.939 96.0345 47.9781 96.072 48.0172C96.1094 48.0563 96.1094 48.0954 96.1094 48.1736C96.1094 48.2519 96.072 48.3301 96.0345 48.4083C95.997 48.4866 95.9221 48.4866 95.8847 48.4866C95.8097 48.4866 95.7348 48.4475 95.6599 48.4083C95.5101 48.291 95.3602 48.2128 95.2104 48.1345C95.0605 48.0563 94.9107 48.0563 94.7608 48.0563C94.3862 48.0563 94.0865 48.1736 93.8618 48.4474C93.6745 48.7213 93.5621 49.0733 93.5621 49.5818C93.5621 50.0903 93.6745 50.4423 93.8618 50.7161C94.0491 50.9899 94.3488 51.1073 94.7608 51.1073C94.9107 51.1073 95.0605 51.0682 95.2104 51.029C95.3602 50.9899 95.5101 50.8726 95.6599 50.7552C95.6974 50.7161 95.7348 50.7161 95.7723 50.677C95.8097 50.677 95.8472 50.6379 95.8847 50.6379C95.9596 50.6379 95.997 50.677 96.0345 50.7161C96.072 50.7944 96.1094 50.8335 96.1094 50.9508C96.1094 50.9899 96.1094 51.0682 96.072 51.1073C96.072 51.1464 96.0345 51.1855 95.9596 51.2246C95.8097 51.3811 95.585 51.4984 95.3977 51.5375C95.1729 51.6158 94.9481 51.6549 94.6859 51.6549C94.2738 51.7722 93.9742 51.694 93.6745 51.4984Z" fill="#4D4D4D"/>
<path d="M97.9448 51.6549C97.8699 51.5767 97.8325 51.4984 97.8325 51.3811V48.2128H96.821C96.5963 48.2128 96.4839 48.0954 96.4839 47.8998C96.4839 47.7043 96.5963 47.5869 96.821 47.5869H99.5931C99.8179 47.5869 99.9302 47.7043 99.9302 47.8998C99.9302 48.0954 99.8179 48.2128 99.5931 48.2128H98.5817V51.3811C98.5817 51.4984 98.5442 51.5767 98.4693 51.6549C98.3944 51.7331 98.3194 51.7722 98.2071 51.7722C98.0947 51.7331 97.9823 51.694 97.9448 51.6549Z" fill="#4D4D4D"/>
<path d="M101.129 51.4984C100.829 51.342 100.642 51.0682 100.492 50.7552C100.343 50.4423 100.268 50.0512 100.268 49.6209C100.268 49.1906 100.343 48.7995 100.492 48.4866C100.642 48.1736 100.867 47.939 101.129 47.7434C101.391 47.5478 101.766 47.4696 102.141 47.4696C102.515 47.4696 102.852 47.5478 103.152 47.7434C103.452 47.939 103.639 48.1736 103.789 48.4866C103.939 48.7995 104.014 49.1906 104.014 49.6209C104.014 50.0512 103.939 50.4423 103.789 50.7552C103.639 51.0682 103.414 51.342 103.152 51.4984C102.852 51.6549 102.553 51.7722 102.141 51.7722C101.729 51.7722 101.391 51.694 101.129 51.4984ZM102.965 50.7552C103.152 50.4814 103.264 50.1294 103.264 49.6209C103.264 49.1124 103.152 48.7604 102.965 48.4866C102.777 48.2128 102.478 48.0954 102.103 48.0954C101.729 48.0954 101.466 48.2128 101.242 48.4866C101.054 48.7604 100.942 49.1124 100.942 49.6209C100.942 50.1294 101.054 50.4814 101.242 50.7552C101.429 51.029 101.729 51.1464 102.103 51.1464C102.478 51.1464 102.777 51.029 102.965 50.7552Z" fill="#4D4D4D"/>
<path d="M105.55 51.6548C105.287 51.5766 105.1 51.4592 104.913 51.3419C104.838 51.2636 104.8 51.1854 104.8 51.0681C104.8 50.9898 104.838 50.9116 104.875 50.8725C104.913 50.8334 104.988 50.7943 105.025 50.7943C105.1 50.7943 105.175 50.8334 105.25 50.8725C105.4 50.9898 105.587 51.0681 105.774 51.1463C105.962 51.1854 106.149 51.2245 106.374 51.2245C106.636 51.2245 106.861 51.1854 107.01 51.0681C107.16 50.9507 107.235 50.8334 107.235 50.6378C107.235 50.4813 107.16 50.364 107.048 50.2858C106.936 50.2075 106.673 50.1293 106.374 50.0511C106.037 49.9728 105.774 49.8946 105.587 49.7773C105.4 49.6599 105.212 49.5426 105.137 49.3861C105.063 49.2297 104.988 49.0341 104.988 48.7994C104.988 48.5647 105.063 48.33 105.175 48.1344C105.287 47.9389 105.475 47.7824 105.737 47.7042C105.962 47.5868 106.224 47.5477 106.523 47.5477C107.048 47.5477 107.497 47.7042 107.835 47.978C107.872 48.0171 107.91 48.0562 107.947 48.0953C107.984 48.1344 107.984 48.1735 107.984 48.2518C107.984 48.33 107.947 48.4082 107.91 48.4474C107.872 48.5256 107.797 48.5256 107.76 48.5256C107.722 48.5256 107.685 48.5256 107.647 48.5256C107.61 48.5256 107.572 48.4865 107.535 48.4474C107.385 48.33 107.235 48.2518 107.085 48.1735C106.936 48.1344 106.748 48.0953 106.561 48.0953C106.299 48.0953 106.111 48.1344 105.962 48.2518C105.812 48.3691 105.737 48.5256 105.737 48.682C105.737 48.8385 105.812 48.9558 105.924 49.0341C106.037 49.1123 106.261 49.1905 106.598 49.2688C106.936 49.347 107.198 49.4252 107.423 49.5426C107.647 49.6208 107.797 49.7773 107.91 49.8946C108.022 50.0511 108.059 50.2466 108.059 50.4422C108.059 50.6769 107.984 50.9116 107.872 51.0681C107.76 51.2636 107.572 51.381 107.31 51.4983C107.048 51.6157 106.823 51.6548 106.486 51.6548C106.074 51.7721 105.812 51.733 105.55 51.6548Z" fill="#4D4D4D"/>
<path d="M111.131 51.6548C110.869 51.5766 110.682 51.4592 110.494 51.3419C110.419 51.2636 110.382 51.1854 110.382 51.0681C110.382 50.9898 110.419 50.9116 110.457 50.8725C110.494 50.8334 110.569 50.7943 110.607 50.7943C110.682 50.7943 110.756 50.8334 110.831 50.8725C110.981 50.9898 111.169 51.0681 111.356 51.1463C111.543 51.1854 111.73 51.2245 111.955 51.2245C112.217 51.2245 112.442 51.1854 112.592 51.0681C112.742 50.9507 112.817 50.8334 112.817 50.6378C112.817 50.4813 112.742 50.364 112.629 50.2858C112.517 50.2075 112.255 50.1293 111.955 50.0511C111.618 49.9728 111.356 49.8946 111.169 49.7773C110.981 49.6599 110.794 49.5426 110.719 49.3861C110.644 49.2297 110.569 49.0341 110.569 48.7994C110.569 48.5647 110.644 48.33 110.756 48.1344C110.869 47.9389 111.056 47.7824 111.318 47.7042C111.543 47.5868 111.805 47.5477 112.105 47.5477C112.629 47.5477 113.079 47.7042 113.416 47.978C113.454 48.0171 113.491 48.0562 113.529 48.0953C113.566 48.1344 113.566 48.1735 113.566 48.2518C113.566 48.33 113.529 48.4082 113.491 48.4474C113.454 48.5256 113.379 48.5256 113.341 48.5256C113.304 48.5256 113.266 48.5256 113.229 48.5256C113.191 48.5256 113.154 48.4865 113.116 48.4474C112.967 48.33 112.817 48.2518 112.667 48.1735C112.517 48.1344 112.33 48.0953 112.142 48.0953C111.88 48.0953 111.693 48.1344 111.543 48.2518C111.393 48.3691 111.318 48.5256 111.318 48.682C111.318 48.8385 111.393 48.9558 111.506 49.0341C111.618 49.1123 111.843 49.1905 112.18 49.2688C112.517 49.347 112.779 49.4252 113.004 49.5426C113.229 49.6208 113.379 49.7773 113.491 49.8946C113.603 50.0511 113.641 50.2466 113.641 50.4422C113.641 50.6769 113.566 50.9116 113.454 51.0681C113.341 51.2636 113.154 51.381 112.892 51.4983C112.629 51.6157 112.405 51.6548 112.068 51.6548C111.655 51.7721 111.393 51.733 111.131 51.6548Z" fill="#4D4D4D"/>
<path d="M117.987 51.4201C117.987 51.4984 117.949 51.5766 117.874 51.6548C117.799 51.7331 117.724 51.7331 117.649 51.7331C117.575 51.7331 117.537 51.7331 117.462 51.6939C117.425 51.6548 117.387 51.6157 117.35 51.5375L117.013 50.7552H115.027L114.69 51.5375C114.653 51.6157 114.615 51.6548 114.578 51.6939C114.54 51.7331 114.465 51.7331 114.39 51.7331C114.315 51.7331 114.241 51.6939 114.166 51.6548C114.091 51.5766 114.053 51.4984 114.053 51.4201C114.053 51.381 114.053 51.3028 114.091 51.2637L115.627 47.7824C115.664 47.7042 115.701 47.626 115.776 47.5869C115.851 47.5477 115.926 47.5086 116.001 47.5086C116.076 47.5086 116.151 47.5477 116.226 47.5869C116.301 47.626 116.338 47.7042 116.376 47.7824L117.949 51.2637C117.987 51.3028 117.987 51.381 117.987 51.4201ZM115.289 50.1684H116.788L116.039 48.4083L115.289 50.1684Z" fill="#4D4D4D"/>
<path d="M118.885 51.6157C118.811 51.5375 118.811 51.4593 118.811 51.3419V47.8998C118.811 47.7824 118.848 47.7042 118.923 47.626C118.998 47.5477 119.073 47.5086 119.185 47.5086C119.298 47.5086 119.372 47.5477 119.447 47.626C119.522 47.7042 119.56 47.7824 119.56 47.8998V51.0681H121.133C121.358 51.0681 121.47 51.1854 121.47 51.381C121.47 51.5766 121.358 51.6939 121.133 51.6939H119.185C119.035 51.7331 118.96 51.6939 118.885 51.6157Z" fill="#4D4D4D"/>
<path d="M122.407 51.3419C122.107 51.0289 121.995 50.6378 121.995 50.0511V47.9389C121.995 47.8215 122.032 47.7433 122.107 47.6651C122.182 47.5868 122.257 47.5477 122.369 47.5477C122.482 47.5477 122.557 47.5868 122.631 47.6651C122.706 47.7433 122.744 47.8215 122.744 47.9389V50.0902C122.744 50.4422 122.819 50.716 122.969 50.9116C123.118 51.1072 123.381 51.1854 123.68 51.1854C123.98 51.1854 124.205 51.1072 124.392 50.9116C124.542 50.716 124.617 50.4422 124.617 50.0902V47.9389C124.617 47.8215 124.654 47.7433 124.729 47.6651C124.804 47.5868 124.879 47.5477 124.991 47.5477C125.104 47.5477 125.179 47.5868 125.254 47.6651C125.329 47.7433 125.366 47.8215 125.366 47.9389V50.0511C125.366 50.5987 125.216 51.0289 124.954 51.3419C124.692 51.6548 124.28 51.7721 123.718 51.7721C123.081 51.7721 122.669 51.6157 122.407 51.3419Z" fill="#4D4D4D"/>
<path d="M126.452 51.6158C126.377 51.5375 126.377 51.4593 126.377 51.342V47.939C126.377 47.8216 126.415 47.7434 126.452 47.6652C126.49 47.5869 126.602 47.5869 126.715 47.5869H127.838C128.475 47.5869 129 47.7825 129.337 48.1345C129.674 48.4866 129.861 48.9951 129.861 49.66C129.861 50.325 129.674 50.8335 129.337 51.1855C129 51.5375 128.475 51.7331 127.838 51.7331H126.715C126.602 51.7331 126.527 51.694 126.452 51.6158ZM129.15 49.66C129.15 48.6821 128.7 48.2128 127.801 48.2128H127.127V51.1073H127.801C128.7 51.1073 129.15 50.5988 129.15 49.66Z" fill="#4D4D4D"/>
<path d="M134.394 51.4201C134.394 51.4984 134.357 51.5766 134.282 51.6548C134.207 51.7331 134.132 51.7331 134.057 51.7331C133.982 51.7331 133.945 51.7331 133.87 51.6939C133.832 51.6548 133.795 51.6157 133.757 51.5375L133.42 50.7552H131.435L131.098 51.5375C131.06 51.6157 131.023 51.6548 130.985 51.6939C130.948 51.7331 130.873 51.7331 130.798 51.7331C130.723 51.7331 130.648 51.6939 130.573 51.6548C130.498 51.5766 130.461 51.4984 130.461 51.4201C130.461 51.381 130.461 51.3028 130.498 51.2637L132.034 47.7824C132.072 47.7042 132.109 47.626 132.184 47.5869C132.259 47.5477 132.334 47.5086 132.409 47.5086C132.484 47.5086 132.559 47.5477 132.634 47.5869C132.709 47.626 132.746 47.7042 132.783 47.7824L134.357 51.2637C134.357 51.3028 134.394 51.381 134.394 51.4201ZM131.66 50.1684H133.158L132.409 48.4083L131.66 50.1684Z" fill="#4D4D4D"/>
<path d="M138.14 49.9339C138.253 50.1295 138.328 50.3251 138.328 50.5989C138.328 50.9509 138.215 51.2247 137.953 51.4203C137.728 51.6159 137.391 51.7332 136.942 51.7332H135.481C135.368 51.7332 135.293 51.6941 135.218 51.655C135.144 51.5768 135.144 51.4985 135.144 51.3812V47.9782C135.144 47.8608 135.181 47.7826 135.218 47.7044C135.256 47.6261 135.368 47.6261 135.481 47.6261H136.867C137.279 47.6261 137.616 47.7044 137.841 47.8999C138.065 48.0955 138.178 48.3693 138.178 48.6822C138.178 48.9169 138.14 49.0734 138.028 49.269C137.916 49.4254 137.766 49.5428 137.578 49.621C137.841 49.6601 138.028 49.7775 138.14 49.9339ZM135.893 49.3081H136.792C137.279 49.3081 137.541 49.1125 137.541 48.7214C137.541 48.5258 137.466 48.3693 137.354 48.2911C137.241 48.2129 137.054 48.1346 136.792 48.1346H135.893V49.3081ZM137.466 50.99C137.578 50.9118 137.653 50.7553 137.653 50.5206C137.653 50.286 137.578 50.1686 137.466 50.0513C137.354 49.9339 137.166 49.8948 136.904 49.8948H135.893V51.1074H136.904C137.166 51.1465 137.354 51.0683 137.466 50.99Z" fill="#4D4D4D"/>
<path d="M139.339 51.6157C139.264 51.5375 139.264 51.4593 139.264 51.3419V47.8998C139.264 47.7824 139.302 47.7042 139.377 47.626C139.451 47.5477 139.526 47.5086 139.639 47.5086C139.751 47.5086 139.826 47.5477 139.901 47.626C139.976 47.7042 140.013 47.7824 140.013 47.8998V51.0681H141.587C141.811 51.0681 141.924 51.1854 141.924 51.381C141.924 51.5766 141.811 51.6939 141.587 51.6939H139.639C139.489 51.7331 139.414 51.6939 139.339 51.6157Z" fill="#4D4D4D"/>
<path d="M142.711 51.6158C142.636 51.5375 142.636 51.4593 142.636 51.342V47.939C142.636 47.8216 142.673 47.7434 142.711 47.6652C142.748 47.5869 142.861 47.5869 142.973 47.5869H144.996C145.108 47.5869 145.183 47.626 145.258 47.6652C145.333 47.7043 145.333 47.7825 145.333 47.8998C145.333 47.9781 145.295 48.0563 145.258 48.1345C145.183 48.1736 145.108 48.2128 144.996 48.2128H143.31V49.3471H144.883C144.996 49.3471 145.071 49.3862 145.146 49.4253C145.221 49.4644 145.221 49.5427 145.221 49.66C145.221 49.7383 145.183 49.8165 145.146 49.8947C145.071 49.9338 144.996 49.9729 144.883 49.9729H143.31V51.1855H144.996C145.108 51.1855 145.183 51.2246 145.258 51.2637C145.333 51.3029 145.333 51.3811 145.333 51.4984C145.333 51.5767 145.295 51.6549 145.258 51.7331C145.183 51.7722 145.108 51.8113 144.996 51.8113H142.973C142.861 51.7331 142.786 51.694 142.711 51.6158Z" fill="#4D4D4D"/>
<path d="M146.681 51.6548C146.419 51.5766 146.232 51.4592 146.045 51.3419C145.97 51.2636 145.932 51.1854 145.932 51.0681C145.932 50.9898 145.97 50.9116 146.007 50.8725C146.045 50.8334 146.119 50.7943 146.157 50.7943C146.232 50.7943 146.307 50.8334 146.382 50.8725C146.531 50.9898 146.719 51.0681 146.906 51.1463C147.093 51.1854 147.281 51.2245 147.505 51.2245C147.768 51.2245 147.992 51.1854 148.142 51.0681C148.292 50.9507 148.367 50.8334 148.367 50.6378C148.367 50.4813 148.292 50.364 148.18 50.2858C148.067 50.2075 147.805 50.1293 147.505 50.0511C147.168 49.9728 146.906 49.8946 146.719 49.7773C146.531 49.6599 146.344 49.5426 146.269 49.3861C146.194 49.2297 146.119 49.0341 146.119 48.7994C146.119 48.5647 146.194 48.33 146.307 48.1344C146.419 47.9389 146.606 47.7824 146.869 47.7042C147.093 47.5868 147.356 47.5477 147.655 47.5477C148.18 47.5477 148.629 47.7042 148.966 47.978C149.004 48.0171 149.041 48.0562 149.079 48.0953C149.116 48.1344 149.116 48.1735 149.116 48.2518C149.116 48.33 149.079 48.4082 149.041 48.4474C149.004 48.5256 148.929 48.5256 148.891 48.5256C148.854 48.5256 148.817 48.5256 148.779 48.5256C148.742 48.5256 148.704 48.4865 148.667 48.4474C148.517 48.33 148.367 48.2518 148.217 48.1735C148.067 48.1344 147.88 48.0953 147.693 48.0953C147.431 48.0953 147.243 48.1344 147.093 48.2518C146.944 48.3691 146.869 48.5256 146.869 48.682C146.869 48.8385 146.944 48.9558 147.056 49.0341C147.168 49.1123 147.393 49.1905 147.73 49.2688C148.067 49.347 148.33 49.4252 148.554 49.5426C148.779 49.6208 148.929 49.7773 149.041 49.8946C149.154 50.0511 149.191 50.2466 149.191 50.4422C149.191 50.6769 149.116 50.9116 149.004 51.0681C148.891 51.2636 148.704 51.381 148.442 51.4983C148.18 51.6157 147.955 51.6548 147.618 51.6548C147.206 51.7721 146.944 51.733 146.681 51.6548Z" fill="#4D4D4D"/>
<path d="M155.335 51.4201C155.335 51.4984 155.297 51.5766 155.222 51.6548C155.147 51.7331 155.073 51.7331 154.998 51.7331C154.923 51.7331 154.885 51.7331 154.81 51.6939C154.773 51.6548 154.735 51.6157 154.698 51.5375L154.361 50.7552H152.375L152.038 51.5375C152.001 51.6157 151.963 51.6548 151.926 51.6939C151.888 51.7331 151.813 51.7331 151.739 51.7331C151.664 51.7331 151.589 51.6939 151.514 51.6548C151.439 51.5766 151.401 51.4984 151.401 51.4201C151.401 51.381 151.401 51.3028 151.439 51.2637L152.975 47.7824C153.012 47.7042 153.05 47.626 153.125 47.5869C153.199 47.5477 153.274 47.5086 153.349 47.5086C153.424 47.5086 153.499 47.5477 153.574 47.5869C153.649 47.626 153.686 47.7042 153.724 47.7824L155.297 51.2637C155.335 51.3028 155.335 51.381 155.335 51.4201ZM152.638 50.1684H154.136L153.387 48.4083L152.638 50.1684Z" fill="#4D4D4D"/>
<path d="M158.294 51.3419C157.994 51.0289 157.882 50.6378 157.882 50.0511V47.9389C157.882 47.8215 157.919 47.7433 157.994 47.6651C158.069 47.5868 158.144 47.5477 158.256 47.5477C158.369 47.5477 158.444 47.5868 158.519 47.6651C158.594 47.7433 158.631 47.8215 158.631 47.9389V50.0902C158.631 50.4422 158.706 50.716 158.856 50.9116C159.006 51.1072 159.268 51.1854 159.568 51.1854C159.867 51.1854 160.092 51.1072 160.279 50.9116C160.429 50.716 160.504 50.4422 160.504 50.0902V47.9389C160.504 47.8215 160.542 47.7433 160.617 47.6651C160.691 47.5868 160.766 47.5477 160.879 47.5477C160.991 47.5477 161.066 47.5868 161.141 47.6651C161.216 47.7433 161.253 47.8215 161.253 47.9389V50.0511C161.253 50.5987 161.104 51.0289 160.841 51.3419C160.579 51.6548 160.167 51.7721 159.605 51.7721C159.006 51.7721 158.594 51.6157 158.294 51.3419Z" fill="#4D4D4D"/>
<path d="M165.524 47.6651C165.599 47.7433 165.599 47.8215 165.599 47.9389V51.381C165.599 51.4983 165.562 51.5766 165.487 51.6548C165.412 51.733 165.337 51.7721 165.224 51.7721C165.112 51.7721 165 51.733 164.962 51.6548L162.902 48.8776V51.4201C162.902 51.5374 162.864 51.6157 162.827 51.6939C162.752 51.7721 162.677 51.8113 162.565 51.8113C162.452 51.8113 162.377 51.7721 162.302 51.6939C162.228 51.6157 162.228 51.5374 162.228 51.4201V47.978C162.228 47.8606 162.265 47.7824 162.34 47.7042C162.415 47.6259 162.49 47.5868 162.602 47.5868C162.715 47.5868 162.789 47.6259 162.864 47.7042L164.925 50.4813V47.9389C164.925 47.8215 164.962 47.7433 165 47.6651C165.037 47.5868 165.149 47.5477 165.262 47.5477C165.374 47.5477 165.449 47.5868 165.524 47.6651Z" fill="#4D4D4D"/>
<path d="M169.045 51.6548C168.783 51.5766 168.596 51.4592 168.408 51.3419C168.333 51.2636 168.296 51.1854 168.296 51.0681C168.296 50.9898 168.333 50.9116 168.371 50.8725C168.408 50.8334 168.483 50.7943 168.521 50.7943C168.596 50.7943 168.671 50.8334 168.745 50.8725C168.895 50.9898 169.083 51.0681 169.27 51.1463C169.457 51.1854 169.644 51.2245 169.869 51.2245C170.131 51.2245 170.356 51.1854 170.506 51.0681C170.656 50.9507 170.731 50.8334 170.731 50.6378C170.731 50.4813 170.656 50.364 170.544 50.2858C170.431 50.2075 170.169 50.1293 169.869 50.0511C169.532 49.9728 169.27 49.8946 169.083 49.7773C168.895 49.6599 168.708 49.5426 168.633 49.3861C168.558 49.2297 168.483 49.0341 168.483 48.7994C168.483 48.5647 168.558 48.33 168.671 48.1344C168.783 47.9389 168.97 47.7824 169.232 47.7042C169.457 47.5868 169.719 47.5477 170.019 47.5477C170.544 47.5477 170.993 47.7042 171.33 47.978C171.368 48.0171 171.405 48.0562 171.443 48.0953C171.48 48.1344 171.48 48.1735 171.48 48.2518C171.48 48.33 171.443 48.4082 171.405 48.4474C171.368 48.5256 171.293 48.5256 171.255 48.5256C171.218 48.5256 171.18 48.5256 171.143 48.5256C171.105 48.5256 171.068 48.4865 171.031 48.4474C170.881 48.33 170.731 48.2518 170.581 48.1735C170.431 48.1344 170.244 48.0953 170.057 48.0953C169.794 48.0953 169.607 48.1344 169.457 48.2518C169.307 48.3691 169.232 48.5256 169.232 48.682C169.232 48.8385 169.307 48.9558 169.42 49.0341C169.532 49.1123 169.757 49.1905 170.094 49.2688C170.431 49.347 170.693 49.4252 170.918 49.5426C171.143 49.6208 171.293 49.7773 171.405 49.8946C171.518 50.0511 171.555 50.2466 171.555 50.4422C171.555 50.6769 171.48 50.9116 171.368 51.0681C171.255 51.2636 171.068 51.381 170.806 51.4983C170.544 51.6157 170.319 51.6548 169.982 51.6548C169.57 51.7721 169.307 51.733 169.045 51.6548Z" fill="#4D4D4D"/>
<path d="M173.091 51.4984C172.791 51.342 172.604 51.0682 172.454 50.7552C172.304 50.4423 172.229 50.0512 172.229 49.6209C172.229 49.1906 172.304 48.7995 172.454 48.4866C172.604 48.1736 172.829 47.939 173.091 47.7434C173.353 47.5478 173.728 47.4696 174.103 47.4696C174.477 47.4696 174.814 47.5478 175.114 47.7434C175.414 47.939 175.601 48.1736 175.751 48.4866C175.901 48.7995 175.976 49.1906 175.976 49.6209C175.976 50.0512 175.901 50.4423 175.751 50.7552C175.601 51.0682 175.376 51.342 175.114 51.4984C174.814 51.6549 174.515 51.7722 174.103 51.7722C173.69 51.7722 173.353 51.694 173.091 51.4984ZM174.927 50.7552C175.114 50.4814 175.226 50.1294 175.226 49.6209C175.226 49.1124 175.114 48.7604 174.927 48.4866C174.739 48.2128 174.44 48.0954 174.065 48.0954C173.69 48.0954 173.428 48.2128 173.203 48.4866C173.016 48.7604 172.904 49.1124 172.904 49.6209C172.904 50.1294 173.016 50.4814 173.203 50.7552C173.391 51.029 173.69 51.1464 174.065 51.1464C174.44 51.1464 174.739 51.029 174.927 50.7552Z" fill="#4D4D4D"/>
<path d="M177.025 51.6157C176.95 51.5375 176.95 51.4593 176.95 51.3419V47.8998C176.95 47.7824 176.987 47.7042 177.062 47.626C177.137 47.5477 177.212 47.5086 177.324 47.5086C177.437 47.5086 177.512 47.5477 177.587 47.626C177.661 47.7042 177.699 47.7824 177.699 47.8998V51.0681H179.272C179.497 51.0681 179.609 51.1854 179.609 51.381C179.609 51.5766 179.497 51.6939 179.272 51.6939H177.324C177.174 51.7331 177.1 51.6939 177.025 51.6157Z" fill="#4D4D4D"/>
<path d="M180.845 51.4984C180.546 51.342 180.358 51.0682 180.209 50.7552C180.059 50.4423 179.984 50.0512 179.984 49.6209C179.984 49.1906 180.059 48.7995 180.209 48.4866C180.358 48.1736 180.583 47.939 180.845 47.7434C181.108 47.5478 181.482 47.4696 181.857 47.4696C182.232 47.4696 182.569 47.5478 182.868 47.7434C183.168 47.939 183.355 48.1736 183.505 48.4866C183.655 48.7995 183.73 49.1906 183.73 49.6209C183.73 50.0512 183.655 50.4423 183.505 50.7552C183.355 51.0682 183.131 51.342 182.868 51.4984C182.569 51.6549 182.269 51.7722 181.857 51.7722C181.482 51.7722 181.145 51.694 180.845 51.4984ZM182.719 50.7552C182.906 50.4814 183.018 50.1294 183.018 49.6209C183.018 49.1124 182.906 48.7604 182.719 48.4866C182.531 48.2128 182.232 48.0954 181.857 48.0954C181.482 48.0954 181.22 48.2128 180.995 48.4866C180.808 48.7604 180.696 49.1124 180.696 49.6209C180.696 50.1294 180.808 50.4814 180.995 50.7552C181.183 51.029 181.482 51.1464 181.857 51.1464C182.232 51.1464 182.494 51.029 182.719 50.7552Z" fill="#4D4D4D"/>
<path d="M187.251 51.4984C186.951 51.342 186.727 51.0682 186.577 50.7552C186.427 50.4423 186.352 50.0512 186.352 49.6209C186.352 49.1906 186.427 48.7995 186.577 48.4866C186.727 48.1736 186.951 47.939 187.251 47.7434C187.551 47.5478 187.888 47.4696 188.263 47.4696C188.525 47.4696 188.75 47.5087 188.974 47.5869C189.199 47.6652 189.386 47.7825 189.536 47.8998C189.574 47.939 189.611 47.9781 189.649 48.0172C189.686 48.0563 189.686 48.0954 189.686 48.1736C189.686 48.2519 189.649 48.3301 189.611 48.4083C189.574 48.4866 189.499 48.4866 189.461 48.4866C189.386 48.4866 189.311 48.4475 189.237 48.4083C189.087 48.291 188.937 48.2128 188.787 48.1345C188.637 48.0563 188.487 48.0563 188.337 48.0563C187.963 48.0563 187.663 48.1736 187.438 48.4474C187.251 48.7213 187.139 49.0733 187.139 49.5818C187.139 50.0903 187.251 50.4423 187.438 50.7161C187.626 50.9899 187.925 51.1073 188.337 51.1073C188.487 51.1073 188.637 51.0682 188.787 51.029C188.937 50.9899 189.087 50.8726 189.237 50.7552C189.274 50.7161 189.311 50.7161 189.349 50.677C189.386 50.677 189.424 50.6379 189.461 50.6379C189.536 50.6379 189.574 50.677 189.611 50.7161C189.649 50.7944 189.686 50.8335 189.686 50.9508C189.686 50.9899 189.686 51.0682 189.649 51.1073C189.649 51.1464 189.611 51.1855 189.536 51.2246C189.386 51.3811 189.162 51.4984 188.974 51.5375C188.75 51.6158 188.525 51.6549 188.263 51.6549C187.888 51.7722 187.551 51.694 187.251 51.4984Z" fill="#4D4D4D"/>
<path d="M190.623 51.6157C190.548 51.5375 190.548 51.4593 190.548 51.3419V47.8998C190.548 47.7824 190.585 47.7042 190.66 47.626C190.735 47.5477 190.81 47.5086 190.922 47.5086C191.035 47.5086 191.11 47.5477 191.185 47.626C191.26 47.7042 191.297 47.7824 191.297 47.8998V51.0681H192.87C193.095 51.0681 193.208 51.1854 193.208 51.381C193.208 51.5766 193.095 51.6939 192.87 51.6939H190.922C190.773 51.7331 190.698 51.6939 190.623 51.6157Z" fill="#4D4D4D"/>
<path d="M194.032 51.6548C193.957 51.5766 193.919 51.4983 193.919 51.381V47.9389C193.919 47.8215 193.957 47.7433 194.032 47.6651C194.107 47.5868 194.182 47.5477 194.294 47.5477C194.406 47.5477 194.481 47.5868 194.556 47.6651C194.631 47.7433 194.669 47.8215 194.669 47.9389V51.381C194.669 51.4983 194.631 51.5766 194.556 51.6548C194.481 51.733 194.406 51.7721 194.294 51.7721C194.182 51.733 194.069 51.733 194.032 51.6548Z" fill="#4D4D4D"/>
<path d="M196.504 51.4984C196.204 51.342 195.98 51.0682 195.83 50.7552C195.68 50.4423 195.605 50.0512 195.605 49.6209C195.605 49.1906 195.68 48.7995 195.83 48.4866C195.98 48.1736 196.204 47.939 196.504 47.7434C196.804 47.5478 197.141 47.4696 197.515 47.4696C197.778 47.4696 198.002 47.5087 198.227 47.5869C198.452 47.6652 198.639 47.7825 198.789 47.8998C198.827 47.939 198.864 47.9781 198.902 48.0172C198.939 48.0563 198.939 48.0954 198.939 48.1736C198.939 48.2519 198.902 48.3301 198.864 48.4083C198.827 48.4866 198.752 48.4866 198.714 48.4866C198.639 48.4866 198.564 48.4475 198.489 48.4083C198.34 48.291 198.19 48.2128 198.04 48.1345C197.89 48.0563 197.74 48.0563 197.59 48.0563C197.216 48.0563 196.916 48.1736 196.691 48.4474C196.504 48.7213 196.392 49.0733 196.392 49.5818C196.392 50.0903 196.504 50.4423 196.691 50.7161C196.879 50.9899 197.178 51.1073 197.59 51.1073C197.74 51.1073 197.89 51.0682 198.04 51.029C198.19 50.9899 198.34 50.8726 198.489 50.7552C198.527 50.7161 198.564 50.7161 198.602 50.677C198.639 50.677 198.677 50.6379 198.714 50.6379C198.789 50.6379 198.827 50.677 198.864 50.7161C198.902 50.7944 198.939 50.8335 198.939 50.9508C198.939 50.9899 198.939 51.0682 198.902 51.1073C198.902 51.1464 198.864 51.1855 198.789 51.2246C198.639 51.3811 198.415 51.4984 198.227 51.5375C198.002 51.6158 197.778 51.6549 197.515 51.6549C197.141 51.7722 196.804 51.694 196.504 51.4984Z" fill="#4D4D4D"/>
<path d="M202.985 51.381C202.985 51.4592 202.947 51.5375 202.872 51.6157C202.797 51.6939 202.723 51.7331 202.648 51.7331C202.573 51.7331 202.46 51.6939 202.385 51.6157L200.512 49.7773V51.3419C200.512 51.4592 200.475 51.5375 200.4 51.6157C200.325 51.6939 200.25 51.7331 200.138 51.7331C200.025 51.7331 199.95 51.6939 199.876 51.6157C199.801 51.5375 199.763 51.4592 199.763 51.3419V47.8998C199.763 47.7824 199.801 47.7042 199.876 47.626C199.95 47.5477 200.025 47.5086 200.138 47.5086C200.25 47.5086 200.325 47.5477 200.4 47.626C200.475 47.7042 200.512 47.7824 200.512 47.8998V49.4253L202.31 47.6651C202.385 47.5869 202.46 47.5477 202.535 47.5477C202.61 47.5477 202.685 47.5869 202.76 47.6651C202.835 47.7433 202.872 47.8215 202.872 47.8998C202.872 47.978 202.835 48.0562 202.76 48.1345L201.262 49.5817L202.872 51.1463C202.947 51.2246 202.985 51.3028 202.985 51.381Z" fill="#4D4D4D"/>
<path d="M151.551 26.5431C151.664 26.6213 151.739 26.6995 151.776 26.7778C151.776 26.8169 151.813 26.8169 151.813 26.856C151.813 26.8951 151.776 26.9342 151.739 26.9733C151.701 26.9733 151.626 27.0125 151.514 27.0125H151.289C151.139 27.0125 150.952 26.9733 150.69 26.9733C150.39 26.9733 150.053 27.0125 149.678 27.0516C149.304 27.0907 148.966 27.1298 148.667 27.1689H148.517C148.292 27.208 148.105 27.208 147.918 27.208C147.73 27.208 147.618 27.208 147.505 27.1689C147.243 27.0516 147.018 26.8169 146.831 26.4257C146.569 26.0346 146.382 25.6043 146.307 25.0958C146.307 25.0176 146.269 24.9785 146.269 24.9002C146.269 24.47 146.494 24.0397 146.906 23.5703C148.405 22.084 150.615 20.6367 153.537 19.2286C156.459 17.8204 158.894 16.9208 160.879 16.4905C161.666 16.2949 162.302 16.2167 162.789 16.2167C163.276 16.2167 163.726 16.4514 164.138 16.8425C165.374 17.9378 165.974 19.033 165.974 20.0109C165.974 21.0278 165.449 22.1622 164.363 23.453C161.89 26.4648 159.306 29.3594 156.534 32.1365C153.761 34.9137 150.952 37.5735 148.067 40.1551C147.73 40.468 147.505 40.7027 147.393 40.781L147.356 40.8201H147.393C147.393 40.8201 147.431 40.8201 147.505 40.781C151.551 38.5905 155.709 36.4001 160.017 34.1705C160.617 33.8576 161.254 33.5447 161.928 33.2709C162.602 32.9971 163.239 32.7624 163.763 32.6059C164.175 32.4886 164.513 32.4103 164.737 32.4103C164.812 32.4103 164.85 32.4103 164.887 32.4495C164.962 32.4495 165 32.4886 165 32.5668C165 32.6841 164.85 32.8797 164.513 33.1926C164.175 33.5056 163.426 34.0532 162.265 34.8355C159.568 36.6348 156.534 38.5905 153.125 40.7027C149.716 42.8149 146.606 44.5751 143.722 45.9442C143.535 46.0224 143.347 46.0615 143.197 46.0615H143.085C142.973 46.0615 142.86 46.0615 142.785 46.0224C142.523 45.9442 142.261 45.7486 141.999 45.4357C141.699 45.0836 141.437 44.6925 141.137 44.2231C140.875 43.7537 140.725 43.3234 140.725 43.0105C140.725 42.8149 140.763 42.6585 140.875 42.502C140.987 42.3456 141.137 42.15 141.324 41.8762L141.512 41.6415C141.924 41.0939 142.598 40.3507 143.497 39.3337C147.131 35.5395 150.839 31.7454 154.66 28.0294C157.208 25.5261 159.68 23.0227 162.153 20.5194C162.34 20.3238 162.527 20.1282 162.64 20.0109C162.752 19.8935 162.827 19.8153 162.827 19.7762C162.827 19.7371 162.864 19.7371 162.864 19.6979C162.864 19.6979 162.864 19.6588 162.827 19.6588C162.827 19.6588 162.789 19.6197 162.752 19.6197C162.64 19.6197 162.302 19.6979 161.815 19.8935C157.62 21.2234 153.574 23.0618 149.791 25.3696C149.566 25.5261 149.416 25.6043 149.379 25.6825L149.341 25.7217C149.341 25.7608 149.379 25.7999 149.453 25.839C149.678 25.9563 149.978 26.0346 150.39 26.1519L150.577 26.191C150.952 26.2302 151.289 26.3866 151.551 26.5431Z" fill="#5F9557"/>
<path d="M172.117 30.4153C170.394 32.7231 169.383 34.5615 169.008 35.9697C168.97 36.1653 168.933 36.3217 168.933 36.4C168.933 36.4391 168.933 36.4782 168.97 36.5173C169.008 36.5955 169.12 36.6346 169.27 36.6346L169.457 36.5955C170.806 36.4 172.417 35.735 174.252 34.718C176.125 33.6619 177.998 32.4493 179.946 31.0803C181.894 29.7113 183.655 28.4205 185.191 27.247C185.64 26.9341 186.053 26.6212 186.427 26.3083C187.326 25.6824 187.888 25.3695 188.113 25.3695C188.188 25.3695 188.225 25.4086 188.225 25.4868V25.7215C188.225 25.878 187.776 26.4256 186.952 27.3253C184.966 29.5157 182.419 31.7453 179.422 34.0531C176.425 36.3608 173.84 38.0037 171.668 38.9424C170.918 39.2162 170.319 39.3727 169.869 39.3727H169.757C169.345 39.3727 168.933 39.2945 168.596 39.138C167.847 38.8251 167.21 38.2775 166.685 37.6125C166.161 36.9085 165.786 36.1653 165.599 35.3438C165.562 35.1874 165.562 34.9918 165.562 34.7962C165.562 33.7401 166.086 32.2929 167.135 30.4936C168.184 28.6943 169.495 26.8559 171.143 24.9784C172.754 23.1008 174.215 21.7709 175.526 20.9886C176.275 20.5583 176.95 20.3628 177.549 20.3628C177.699 20.3628 177.849 20.3628 177.961 20.4019C178.635 20.5192 179.235 20.8322 179.759 21.3015C180.771 22.2794 181.258 23.2964 181.258 24.2352C181.258 24.509 181.145 25.0175 180.92 25.7607C180.696 26.5038 179.946 27.3644 178.71 28.3031C177.474 29.2419 176.2 29.946 174.889 30.3762C174.215 30.5718 173.616 30.6892 173.129 30.6892C172.717 30.65 172.379 30.5718 172.117 30.4153ZM179.647 23.9614C179.647 23.9222 179.684 23.844 179.684 23.8049C179.684 23.7267 179.647 23.6093 179.609 23.492C179.572 23.3746 179.459 23.2964 179.347 23.1791C179.272 23.1399 179.235 23.1399 179.16 23.1399C179.085 23.1399 179.01 23.1399 178.935 23.1791C178.223 23.5702 177.324 24.3134 176.313 25.3695C175.264 26.4256 174.252 27.5991 173.203 28.929C173.69 28.6943 174.365 28.264 175.339 27.6382C176.275 27.0515 177.174 26.3865 178.036 25.7215C178.935 25.0566 179.459 24.4699 179.647 23.9614Z" fill="#5F9557"/>
<path d="M188.188 23.9614C188.225 23.8441 188.3 23.7658 188.338 23.6485C188.562 23.2182 188.825 22.7879 189.087 22.3968C189.387 21.9665 189.686 21.7318 190.061 21.6145C190.136 21.5754 190.211 21.5754 190.323 21.5754C190.623 21.5754 190.96 21.771 191.297 22.123L191.335 22.1621C191.934 22.7488 192.309 23.2573 192.421 23.6485C192.458 23.7267 192.458 23.8441 192.458 23.9614C192.458 24.3525 192.271 24.8219 191.934 25.3695C190.885 27.1688 189.836 29.1246 188.787 31.1586C187.738 33.2317 186.877 34.9527 186.202 36.4C185.566 37.8081 185.228 38.5122 185.228 38.5513C186.502 36.4391 188.113 34.0531 190.061 31.4324C192.009 28.8117 193.994 26.3474 196.092 24.0396C198.19 21.7318 200.1 19.9717 201.898 18.7591C202.273 18.4853 202.573 18.3679 202.872 18.3288H203.022C203.247 18.3288 203.509 18.4071 203.771 18.5244C203.884 18.5635 203.996 18.6417 204.109 18.6809C204.633 18.8764 205.12 19.1894 205.57 19.6196C206.019 20.0108 206.244 20.5975 206.244 21.3016C206.244 21.4971 206.206 21.6927 206.169 21.9274C206.019 22.8662 205.719 23.8832 205.307 24.9784C204.895 26.0736 204.408 27.2471 203.884 28.4596C202.872 30.6501 202.011 33.0361 201.224 35.5786C201.187 35.7742 201.149 35.8915 201.149 36.0088C201.149 36.0871 201.149 36.1262 201.187 36.2044C201.224 36.2826 201.299 36.3218 201.449 36.3218C201.898 36.3218 202.985 35.5786 204.671 34.0922C206.356 32.6058 208.042 31.1195 209.69 29.5549C210.514 28.7726 211.226 28.1467 211.826 27.5991C212.425 27.0515 212.837 26.7386 213.024 26.5821C213.137 26.5039 213.249 26.4648 213.324 26.3865C213.886 25.9954 214.298 25.7998 214.485 25.7607C214.523 25.7607 214.56 25.7216 214.598 25.7216C214.673 25.7216 214.71 25.7607 214.747 25.8389V25.878C214.747 25.9954 214.71 26.1518 214.598 26.3474C214.111 27.1297 212.987 28.5379 211.189 30.4936C209.391 32.4494 207.518 34.3269 205.607 36.0871C203.697 37.8473 202.311 38.786 201.411 38.9816H201.187C200.587 38.9816 200.025 38.8251 199.538 38.5122C198.34 37.8081 197.628 36.9867 197.478 36.048C197.403 35.6959 197.366 35.3439 197.366 34.9527C197.366 34.2487 197.478 33.4664 197.665 32.6449C197.965 31.2759 198.527 29.7113 199.314 27.8729C200.1 26.0345 200.775 24.5481 201.299 23.4138C201.599 22.7488 201.786 22.3577 201.786 22.3186C200.437 23.1791 198.714 24.861 196.616 27.3253C194.481 29.7895 192.383 32.4494 190.248 35.3048C188.15 38.1602 186.427 40.6635 185.154 42.7366C184.442 43.9883 183.73 44.6142 183.018 44.6142C182.719 44.6142 182.419 44.4968 182.119 44.3012C181.632 43.9883 181.22 43.6363 180.846 43.2842C180.771 43.206 180.696 43.1278 180.583 43.0496C180.096 42.6584 179.872 42.2281 179.872 41.6805V41.5632C179.984 40.468 180.471 38.8642 181.407 36.7911C182.344 34.718 183.393 32.5667 184.554 30.3763C185.715 28.1858 186.727 26.3474 187.551 24.9002C187.888 24.5481 188.075 24.2352 188.188 23.9614Z" fill="#5F9557"/>
<path d="M49.3208 41.7589C49.2833 41.2895 48.8713 40.9766 48.4218 41.0157C47.9722 41.0548 47.6725 41.4851 47.71 41.9545L48.5341 49.3863H17.0672L17.5167 45.6704L47.5227 25.8391L46.9608 20.4412H40.5925V18.2116C40.5925 13.7134 37.1086 10.0757 32.8006 10.0757C28.4927 10.0757 25.0088 13.7134 25.0088 18.2116V20.4412H18.8278L17.704 28.8118C17.6291 29.2812 17.9662 29.7115 18.3783 29.7506C18.8278 29.8288 19.2399 29.4768 19.2773 29.0465L20.2139 22.1231H25.0088V23.3357C24.4469 23.6095 24.0723 24.1571 24.0723 24.8221C24.0723 25.7217 24.7841 26.4649 25.6457 26.4649C26.5072 26.4649 27.219 25.7217 27.219 24.8221C27.219 24.1571 26.8444 23.5704 26.2825 23.3357V22.1231H39.2064V23.3357C38.6445 23.6095 38.2699 24.1571 38.2699 24.8221C38.2699 25.7217 38.9817 26.4649 39.8433 26.4649C40.7048 26.4649 41.4166 25.7217 41.4166 24.8221C41.4166 24.1571 41.042 23.5704 40.4801 23.3357V22.1231H45.3874L45.6871 24.9785L16.0183 44.6534L15.269 51.0292H50.3697L49.3208 41.7589ZM26.3574 20.4412V18.2116C26.3574 14.4957 29.2419 11.4447 32.8381 11.4447C36.4343 11.4447 39.3188 14.4566 39.3188 18.2116V20.4412H26.3574Z" fill="#5F9557"/>
<path d="M50.819 51.4986H14.8193L15.6435 44.4188L15.7933 44.3014L45.3872 24.7439L45.1625 22.5143H41.0043V23.0228C41.5662 23.414 41.9409 24.0789 41.9409 24.783C41.9409 25.9173 41.0418 26.8561 39.9554 26.8561C38.8691 26.8561 37.97 25.9173 37.97 24.783C37.97 24.0789 38.3072 23.414 38.9065 23.0228V22.5143H26.7693V23.0228C27.3312 23.414 27.7058 24.0789 27.7058 24.783C27.7058 25.9173 26.8067 26.8561 25.7204 26.8561C24.634 26.8561 23.735 25.9173 23.735 24.783C23.735 24.0789 24.0721 23.414 24.6715 23.0228V22.5143H20.5883L19.6892 29.0856C19.6143 29.7897 18.9775 30.2591 18.3032 30.1809C17.6289 30.1026 17.1794 29.4377 17.2543 28.7336L18.4905 20.0109H24.634V18.2117C24.634 13.4787 28.3052 9.64545 32.8379 9.64545C37.3707 9.64545 41.0418 13.4787 41.0418 18.2117V20.0109H47.3352L47.972 26.0738L17.8911 45.9051L17.554 48.9561H48.1219L47.3352 41.9936C47.2977 41.6416 47.3727 41.3287 47.5974 41.0549C47.7847 40.7811 48.0844 40.6246 48.4216 40.5855C48.7587 40.5464 49.0584 40.6246 49.3206 40.8593C49.5828 41.0549 49.7327 41.3678 49.7701 41.7198L50.819 51.4986ZM15.7184 50.6381H49.92L48.946 41.798C48.946 41.6807 48.8711 41.6025 48.7962 41.5242C48.7212 41.446 48.6089 41.4069 48.4965 41.446C48.3841 41.446 48.3092 41.5242 48.2342 41.6025C48.1593 41.6807 48.1219 41.798 48.1593 41.9154L49.0209 49.8166H16.6174L17.1419 45.4357L17.2917 45.3184L47.1104 25.6435L46.586 20.8715H40.2177V18.2117C40.2177 13.9481 36.9211 10.506 32.8379 10.506C28.7547 10.506 25.4582 13.9481 25.4582 18.2117V20.8715H19.2022L18.1159 28.8901C18.0784 29.1248 18.2283 29.3203 18.453 29.3594C18.6778 29.3986 18.8651 29.2421 18.9025 29.0074L19.8765 21.6929H25.4207V23.5704L25.1959 23.6878C24.7839 23.8833 24.5216 24.3136 24.5216 24.8221C24.5216 25.4871 25.0461 26.0347 25.6829 26.0347C26.3198 26.0347 26.8442 25.4871 26.8442 24.8221C26.8442 24.3527 26.582 23.9225 26.1699 23.6878L25.9452 23.5704V21.6929H39.6932V23.5704L39.4685 23.6878C39.0564 23.8833 38.7942 24.3136 38.7942 24.8221C38.7942 25.4871 39.3186 26.0347 39.9554 26.0347C40.5923 26.0347 41.1167 25.4871 41.1167 24.8221C41.1167 24.3527 40.8545 23.9225 40.4424 23.6878L40.2177 23.5704V21.6929H45.9117L46.2863 25.2133L16.3927 44.9272L15.7184 50.6381ZM39.6932 20.8715H25.9452V18.2117C25.9452 14.261 29.0169 11.0145 32.8379 11.0145C36.6589 11.0145 39.6932 14.261 39.6932 18.2117V20.8715ZM26.7693 20.0109H38.9065V18.2117C38.9065 14.7304 36.1719 11.875 32.8379 11.875C29.5039 11.875 26.7693 14.7304 26.7693 18.2117V20.0109Z" fill="#5F9557"/>
<path d="M51.044 51.6941H14.5947L15.4563 44.3014L15.6811 44.1449L45.2001 24.6656L44.9754 22.7489H41.1918V22.9836C41.7537 23.4139 42.1283 24.118 42.1283 24.822C42.1283 26.0737 41.1544 27.0907 39.9556 27.0907C38.7569 27.0907 37.7829 26.0737 37.7829 24.822C37.7829 24.0789 38.12 23.3748 38.7194 22.9836V22.7489H26.9568V22.9836C27.5187 23.4139 27.8933 24.118 27.8933 24.822C27.8933 26.0737 26.9193 27.0907 25.7206 27.0907C24.5218 27.0907 23.5478 26.0737 23.5478 24.822C23.5478 24.0789 23.885 23.3748 24.4844 22.9836V22.7489H20.8132L19.9516 29.1638C19.9141 29.555 19.6894 29.907 19.3897 30.1417C19.09 30.3764 18.7154 30.4937 18.3408 30.4155C17.9662 30.3764 17.629 30.1417 17.4043 29.8288C17.1795 29.5159 17.0671 29.1247 17.1421 28.7336L18.3408 19.8153H24.4469V18.2116C24.4469 13.3613 28.193 9.44982 32.8381 9.44982C37.4832 9.44982 41.1918 13.3613 41.1918 18.2116V19.8153H47.4852L48.1595 26.152L48.0471 26.2302L18.0786 46.0224L17.7789 48.7605H47.9348L47.1855 42.0327C47.1481 41.6415 47.2605 41.2504 47.4852 40.9766C47.71 40.6637 48.0471 40.4681 48.4217 40.429C48.7963 40.3898 49.171 40.5072 49.4332 40.7419C49.7329 40.9766 49.9202 41.3286 49.9576 41.7198L51.044 51.6941ZM15.0068 51.303H50.5945L49.5456 41.7589C49.5081 41.4851 49.3957 41.2113 49.171 41.0548C48.9462 40.8592 48.684 40.781 48.4217 40.8201C48.1595 40.8592 47.8973 40.9766 47.7474 41.2113C47.5601 41.446 47.4852 41.7198 47.5227 41.9936L48.3094 49.1516H17.3294L17.704 45.7877L17.7789 45.7486L47.7474 25.9564L47.1481 20.2065H40.8172V18.2116C40.8172 13.596 37.221 9.84097 32.8381 9.84097C28.4552 9.84097 24.8215 13.596 24.8215 18.2116V20.2065H18.6405L17.5167 28.7727C17.4792 29.0465 17.5541 29.3203 17.704 29.555C17.8538 29.7897 18.116 29.9461 18.3783 29.9852C18.6405 30.0244 18.9027 29.9461 19.1275 29.7897C19.3522 29.6332 19.5021 29.3594 19.5395 29.0856L20.4386 22.3578H24.8215V23.1792L24.7091 23.2183C24.1847 23.5704 23.885 24.1571 23.885 24.822C23.885 25.8782 24.7091 26.6996 25.6831 26.6996C26.6945 26.6996 27.4812 25.839 27.4812 24.822C27.4812 24.1962 27.1441 23.5704 26.6571 23.2183L26.5822 23.1792V22.3578H39.094V23.1792L39.0191 23.2183C38.4947 23.5704 38.195 24.1571 38.195 24.822C38.195 25.8782 39.0191 26.6996 39.9931 26.6996C40.9671 26.6996 41.7912 25.839 41.7912 24.822C41.7912 24.1962 41.4541 23.5704 40.9671 23.2183L40.8172 23.1792V22.3578H45.3125L45.5747 24.8612L45.4623 24.9394L15.7935 44.536L15.0068 51.303ZM50.1449 50.8336H15.4938L16.2055 44.8099L16.2805 44.7707L46.0617 25.0959L45.7246 21.8884H40.4052V23.453L40.5175 23.5312C41.0045 23.7659 41.3042 24.2744 41.3042 24.822C41.3042 25.6043 40.7048 26.2302 39.9556 26.2302C39.2064 26.2302 38.607 25.6043 38.607 24.822C38.607 24.2744 38.9067 23.7659 39.3937 23.5312L39.5061 23.453V21.8884H26.1326V23.453L26.245 23.5312C26.732 23.7659 27.0317 24.2744 27.0317 24.822C27.0317 25.6043 26.4323 26.2302 25.6831 26.2302C24.9339 26.2302 24.3345 25.6043 24.3345 24.822C24.3345 24.2744 24.6342 23.7659 25.1212 23.5312L25.2336 23.453V21.8884H20.064L19.09 29.0074C19.0526 29.1638 18.9776 29.3203 18.8652 29.3985C18.7529 29.4767 18.603 29.555 18.4157 29.5159C18.0786 29.4767 17.8538 29.1638 17.9287 28.8118L19.0151 20.6367H25.2336V18.1725C25.2336 13.8307 28.6425 10.2712 32.8006 10.2712C36.9588 10.2712 40.3677 13.8307 40.3677 18.1725V20.6367H46.736L47.2605 25.6826L47.1481 25.7608L17.3294 45.5139L16.8424 49.621H48.7963L47.9348 41.9153C47.9348 41.7589 47.9722 41.6024 48.0471 41.446C48.1595 41.3286 48.2719 41.2504 48.4592 41.2113C48.609 41.2113 48.7589 41.2504 48.8713 41.3286C48.9837 41.446 49.0586 41.5633 49.096 41.7589L50.1449 50.8336ZM15.9433 50.4424H49.7329L48.7589 41.8371C48.7589 41.7589 48.7214 41.7198 48.684 41.6806C48.6465 41.6415 48.5716 41.6415 48.5341 41.6415C48.4592 41.6415 48.4217 41.6806 48.3843 41.7198C48.3468 41.7589 48.3468 41.8371 48.3468 41.8762L49.2459 49.973H16.4303L16.9922 45.2792L17.217 45.1619L46.9233 25.5261L46.4363 21.067H40.0305V18.2116C40.0305 14.0654 36.8089 10.7015 32.8381 10.7015C28.8673 10.7015 25.6456 14.0654 25.6456 18.2116V21.067H19.3522L18.3033 28.89C18.3033 28.9682 18.3033 29.0074 18.3408 29.0465C18.3783 29.0856 18.4157 29.1247 18.4906 29.1247C18.5281 29.1247 18.603 29.1247 18.6405 29.0856C18.6779 29.0465 18.7154 29.0074 18.7154 28.9291L19.7268 21.4581H25.6082V23.6486L25.271 23.8051C24.9339 23.9615 24.7091 24.3527 24.7091 24.7438C24.7091 25.3305 25.1586 25.7608 25.6831 25.7608C26.2075 25.7608 26.6571 25.2914 26.6571 24.7438C26.6571 24.3527 26.4323 23.9615 26.0952 23.8051L25.758 23.6486V21.4581H39.8807V23.6486L39.5436 23.8051C39.2064 23.9615 38.9816 24.3527 38.9816 24.7438C38.9816 25.3305 39.4312 25.7608 39.9556 25.7608C40.4801 25.7608 40.9296 25.2914 40.9296 24.7438C40.9296 24.3527 40.7048 23.9615 40.3677 23.8051L40.0305 23.6486V21.4581H46.0617L46.4738 25.2523L46.3614 25.3305L16.5427 45.0445L15.9433 50.4424ZM39.8807 21.067H25.758V18.2116C25.758 14.1436 28.9422 10.858 32.8006 10.858C36.6591 10.858 39.8807 14.1436 39.8807 18.2116V21.067ZM26.1326 20.6758H39.5061V18.2116C39.5061 14.3783 36.5092 11.2491 32.8381 11.2491C29.1669 11.2491 26.1701 14.3783 26.1701 18.2116V20.6758H26.1326ZM39.0566 20.2065H26.5822V18.2116C26.5822 14.613 29.3917 11.6794 32.8381 11.6794C36.2845 11.6794 39.094 14.613 39.094 18.2116V20.2065H39.0566ZM26.9568 19.8153H38.7194V18.2116C38.7194 14.8477 36.0972 12.0705 32.8381 12.0705C29.579 12.0705 26.9568 14.8086 26.9568 18.2116V19.8153Z" fill="#5F9557"/>
<path d="M80.788 38.5528C80.788 38.8657 80.6756 39.1395 80.4508 39.3742C80.2261 39.5698 80.0013 39.6871 79.7016 39.6871C79.4768 39.6871 79.2895 39.6089 79.1022 39.4524C78.9149 39.296 78.8026 39.1004 78.6902 38.8266L76.48 32.4117H62.6945L59.5478 38.983C59.3605 39.4524 59.0233 39.648 58.5738 39.648C58.2741 39.648 58.0494 39.5307 57.8246 39.3351C57.6373 39.1395 57.5249 38.8657 57.5249 38.5919C57.5249 38.3963 57.5624 38.2007 57.6747 38.0052L69.6622 13.7147C69.9618 13.128 70.4114 12.8151 71.0107 12.8151C71.3104 12.8151 71.5726 12.8933 71.7974 13.0889C72.0222 13.2453 72.2095 13.5191 72.3219 13.8712L80.713 38.1225C80.7505 38.2007 80.788 38.3572 80.788 38.5528ZM63.7059 30.3777H75.8432L70.8609 15.8269L63.7059 30.3777Z" fill="#333333"/>
<path d="M85.3582 39.3728C85.1708 39.1772 85.0959 38.9034 85.1334 38.4732L87.0064 13.7916C87.0439 13.4395 87.1563 13.1657 87.381 13.0093C87.6058 12.8528 87.868 12.7355 88.2052 12.7355C88.5049 12.7355 88.7671 12.8137 88.9544 13.0093C89.1417 13.1657 89.2166 13.4395 89.2166 13.7916L87.3436 38.4732C87.3061 38.8643 87.1563 39.1772 86.9315 39.3728C86.7067 39.5684 86.4445 39.6466 86.1448 39.6466C85.8077 39.6466 85.5455 39.5684 85.3582 39.3728Z" fill="#333333"/>
<path d="M118.586 22.3186C119.522 23.3356 119.972 24.861 119.972 26.8168C119.972 27.2862 119.972 27.6382 119.934 27.912L119.148 38.4731C119.11 38.8642 118.998 39.1772 118.773 39.3727C118.548 39.5683 118.286 39.6465 117.986 39.6465C117.687 39.6465 117.424 39.5683 117.2 39.3727C117.012 39.1772 116.9 38.9034 116.937 38.4731L117.724 28.0685C117.762 27.8338 117.762 27.4818 117.762 27.0515C117.762 25.6042 117.462 24.5481 116.863 23.8441C116.263 23.14 115.327 22.8271 114.053 22.8271C112.442 22.8271 111.169 23.3747 110.232 24.4308C109.295 25.4869 108.771 27.0124 108.621 28.9681L107.909 38.5122C107.872 38.9034 107.76 39.2163 107.535 39.4119C107.31 39.6074 107.048 39.6857 106.748 39.6857C106.448 39.6857 106.186 39.6074 105.961 39.4119C105.774 39.2163 105.662 38.9425 105.699 38.5122L106.486 28.1076C106.523 27.8729 106.523 27.5209 106.523 27.0906C106.523 25.6433 106.224 24.5872 105.624 23.8832C105.025 23.1791 104.088 22.8662 102.815 22.8662C101.241 22.8662 99.9678 23.4138 99.0312 24.4699C98.0947 25.526 97.5328 27.0515 97.383 29.0072L96.6712 38.5513C96.6338 38.9425 96.4839 39.2554 96.2591 39.451C96.0344 39.6465 95.7722 39.7248 95.4725 39.7248C95.1353 39.7248 94.8731 39.6465 94.6858 39.451C94.4985 39.2554 94.4236 38.9816 94.461 38.5513L95.7347 22.0056C95.7722 21.6536 95.8845 21.3798 96.1093 21.2233C96.3341 21.0669 96.5963 20.9495 96.9334 20.9495C97.2331 20.9495 97.4953 21.0278 97.6827 21.2233C97.87 21.3798 97.9449 21.6536 97.9074 22.0056L97.7201 24.2352C98.8814 22.0056 100.717 20.9104 103.264 20.9104C106.036 20.9104 107.797 22.0839 108.471 24.3917C109.033 23.2964 109.857 22.4359 110.906 21.8101C111.955 21.1842 113.154 20.8713 114.465 20.8713C116.301 20.7931 117.649 21.3016 118.586 22.3186Z" fill="#333333"/>
<path d="M139.451 27.7556L138.665 38.5905C138.627 38.9034 138.515 39.1772 138.327 39.3728C138.14 39.5684 137.878 39.6466 137.578 39.6466C137.241 39.6466 136.979 39.5293 136.754 39.2946C136.567 39.0599 136.454 38.7861 136.492 38.4341L136.642 36.3218C136.117 37.4171 135.368 38.2385 134.394 38.8252C133.42 39.4119 132.334 39.7249 131.097 39.7249C129.337 39.7249 127.913 39.2555 126.827 38.2776C125.741 37.2997 125.179 36.048 125.179 34.5225C125.179 33.1535 125.516 32.0583 126.228 31.2369C126.939 30.4546 128.063 29.8679 129.637 29.4767C131.21 29.1247 133.308 28.9291 135.93 28.9291H137.204L137.316 27.6383C137.353 27.4427 137.353 27.1689 137.353 26.8169C137.353 25.4087 137.054 24.3917 136.417 23.7268C135.78 23.0618 134.806 22.7489 133.495 22.7489C131.622 22.7489 129.674 23.4139 127.614 24.7829C127.464 24.9002 127.277 24.9394 127.164 24.9394C126.939 24.9394 126.715 24.822 126.565 24.6264C126.415 24.4309 126.34 24.1962 126.34 23.9224C126.34 23.4921 126.527 23.1401 126.864 22.9054C127.726 22.2404 128.775 21.7319 130.011 21.3408C131.247 20.9496 132.446 20.754 133.607 20.754C137.803 20.7932 139.788 23.1009 139.451 27.7556ZM135.218 36.1263C136.267 35.0702 136.829 33.662 136.941 31.9801L137.054 30.611H136.005C133.795 30.611 132.071 30.7284 130.873 30.9631C129.637 31.1978 128.775 31.5889 128.25 32.0974C127.726 32.645 127.464 33.3882 127.464 34.327C127.464 35.344 127.838 36.1654 128.55 36.7912C129.262 37.4171 130.236 37.73 131.472 37.73C132.933 37.73 134.207 37.2215 135.218 36.1263Z" fill="#333333"/>
</svg>
