<?xml version="1.0" encoding="utf-8"?>
<!-- Generator: Adobe Illustrator 22.0.0, SVG Export Plug-In . SVG Version: 6.00 Build 0)  -->
<svg version="1.1" id="Layer_1" xmlns="http://www.w3.org/2000/svg" xmlns:xlink="http://www.w3.org/1999/xlink" x="0px" y="0px"
	 viewBox="0 0 36.4 28.2" style="enable-background:new 0 0 36.4 28.2;" xml:space="preserve">
<style type="text/css">
	.st0{fill:#FFFFFF;}
	.st1{fill:none;stroke:#000000;stroke-width:9;stroke-linecap:round;stroke-miterlimit:10;}
	.st2{fill:none;stroke:#000000;stroke-width:7;stroke-linecap:round;stroke-miterlimit:10;}
	.st3{fill:#009245;}
	.st4{fill:#2B2728;}
	.st5{fill:#B6A19E;}
	.st6{fill:#6B648B;}
	.st7{fill:none;stroke:#000000;stroke-width:8;stroke-miterlimit:10;}
	.st8{fill:none;}
	.st9{fill:#165462;}
	.st10{fill:#6AA465;}
	.st11{fill:none;stroke:#000000;stroke-width:11;stroke-linecap:round;stroke-miterlimit:10;}
	.st12{fill:#A7B3A5;}
	.st13{fill:#B6DABF;}
	.st14{fill:#4D822B;}
	.st15{fill:#4D4D4D;}
	.st16{fill:#2C4C3B;}
	.st17{fill:#5F9557;}
	.st18{fill:#2D794A;}
	.st19{fill:#03514B;}
	.st20{fill:#03514C;}
	.st21{fill:#57BC90;}
	.st22{clip-path:url(#SVGID_8_);}
	.st23{clip-path:url(#SVGID_18_);}
	.st24{clip-path:url(#SVGID_22_);}
	.st25{fill:#333333;}
	.st26{fill:#851C81;}
	.st27{clip-path:url(#SVGID_26_);}
	.st28{fill:#828E80;}
	.st29{fill:#64CC56;}
	.st30{fill:#5BBD4F;}
	.st31{fill:none;stroke:#5F9557;stroke-width:2;stroke-miterlimit:10;}
	.st32{opacity:0;fill:#161616;}
	.st33{opacity:0.32;fill:#161616;}
	.st34{fill:#00A500;}
	.st35{fill:#2A5C83;}
	.st36{fill:#C72127;}
	.st37{fill:#43619B;}
	.st38{fill:none;stroke:#5F9557;stroke-width:1.1;stroke-linecap:round;stroke-linejoin:round;stroke-miterlimit:10;}
</style>
<g>
	<g>
		<g>
			<path class="st17" d="M35.3,2.4c-0.1-0.3-0.4-1.1-1.6-1.1c-0.3,0-0.6,0-0.9,0c-2.1-0.1-3.1,0-5.8,3.1c-1.6-2.1-3.6-3.4-5.8-3.8
				l0,0c-2.1-0.4-4.1-0.1-6,0.8c-2.8,1.3-5.3,3.3-7.3,6c-2.4,3.3-4.3,7.3-6,12.7c-0.4,1.3-0.7,2.6-1.1,3.9c-0.2,0.6-0.3,1.2-0.5,1.7
				c-0.1,0.4-0.1,0.8,0.1,1.1c0.2,0.3,0.5,0.5,0.9,0.5c0.5,0,0.9,0,1.4,0c1.3,0,2.7,0.1,4,0.1c0,0,0.1,0,0.1,0
				c2.7,0,5.4-0.3,7.9-0.8c3.3-0.7,5.8-1.7,8-3.2c2.3-1.6,4.1-3.4,5.3-5.5c1.1-1.8,1.6-3.7,1.6-5.7c0-2-0.6-4-1.6-5.9
				c0.2-0.2,0.4-0.4,0.7-0.6c0.6-0.5,1.1-1,1.7-1.4C31,4,31.8,4.1,32.5,4.1c0.9,0,1.7,0.1,2.4-0.3C35.3,3.6,35.5,3,35.3,2.4z"/>
		</g>
	</g>
</g>
</svg>
