<svg width="75" height="75" viewBox="0 0 75 75" fill="none" xmlns="http://www.w3.org/2000/svg">
<g clip-path="url(#clip0)">
<path d="M74.8965 47.0065C74.5413 45.9102 73.3523 45.3234 72.2559 45.6786L39.0717 56.6731C37.4966 54.1252 34.6862 52.442 31.4743 52.442C31.3508 52.442 31.2273 52.442 31.1037 52.442C30.9493 52.442 30.7794 52.4575 30.625 52.4729L17.4532 12.8031C17.2834 12.2781 16.8973 11.8457 16.4032 11.5987L3.01522 4.86608C1.98063 4.3565 0.729846 4.75799 0.220269 5.79259C-0.289308 6.82718 0.112177 8.07796 1.14677 8.58754L13.7781 14.9341L26.6719 53.8472C26.0234 54.2642 25.4212 54.7583 24.8807 55.3451C23.2593 57.1054 22.4255 59.3908 22.5181 61.7688C22.7189 66.5867 26.6411 70.3544 31.4589 70.3544C31.5824 70.3544 31.7059 70.3544 31.8295 70.3544C36.7554 70.1537 40.6004 65.9844 40.3996 61.0431C40.3996 60.9196 40.3842 60.7806 40.3688 60.657L73.5685 49.6625C74.6648 49.2919 75.2516 48.1029 74.8965 47.0065ZM31.6596 66.1697C29.0036 66.2778 26.7955 64.2241 26.6874 61.599C26.6411 60.3173 27.0889 59.0974 27.9536 58.1709C28.8183 57.229 29.9919 56.6885 31.2736 56.6422C31.3353 56.6422 31.4126 56.6422 31.4743 56.6422C34.0377 56.6422 36.1377 58.6496 36.2458 61.2284C36.3385 63.838 34.2847 66.0616 31.6596 66.1697Z" fill="black"/>
<path d="M35.273 50.4501C35.5664 51.3303 36.3848 51.8862 37.2495 51.8862C37.4657 51.8862 37.6819 51.8553 37.8981 51.7781L69.9551 41.1542C70.4801 40.9843 70.9125 40.5983 71.1595 40.1042C71.4066 39.61 71.4529 39.0387 71.2831 38.5137L60.7673 6.73458C60.5974 6.20956 60.2114 5.7772 59.7172 5.53013C59.2231 5.28306 58.6518 5.23674 58.1267 5.40659L42.0982 10.734L26.0697 16.0459C24.9733 16.4011 24.3866 17.5901 24.7417 18.6865L35.273 50.4501ZM41.4342 15.3356L43.9821 23.041C44.2755 23.9212 45.0939 24.4771 45.9587 24.4771C46.1748 24.4771 46.391 24.4462 46.6072 24.369C47.7036 24.0139 48.2904 22.8249 47.9352 21.7285L45.3873 14.0231L57.4627 10.0237L66.6814 37.8497L38.5775 47.161L29.3588 19.3505L41.4342 15.3356Z" fill="black"/>
</g>
<defs>
<clipPath id="clip0">
<rect width="75" height="75" fill="white"/>
</clipPath>
</defs>
</svg>
