<svg width="40" height="42" viewBox="0 0 40 42" fill="none" xmlns="http://www.w3.org/2000/svg">
<g clip-path="url(#clip0)">
<path d="M15.8093 12.3817C15.8855 12.3817 15.9236 12.3817 15.9998 12.3441L22.8188 10.5C23.2379 10.3871 23.4664 9.97311 23.3521 9.5215C23.2379 9.10752 22.8188 8.84408 22.4379 8.95698L15.6188 10.8011C15.1998 10.914 14.9712 11.3279 15.0855 11.7796C15.1617 12.1183 15.4664 12.3817 15.8093 12.3817Z" fill="#5F9557"/>
<path d="M18.476 37.0323C17.9426 38.7634 18.2474 40.2312 19.6188 41.285C20.7236 42.1129 21.9426 42.1882 23.1236 41.5108C24.7236 40.5699 25.0664 39.1022 24.7236 37.2581H33.2569C33.2569 37.4462 33.2569 37.6344 33.2188 37.785C32.876 39.7043 34.095 41.6237 35.8855 41.8871C37.9426 42.1882 39.6569 40.7581 39.8093 38.6129C39.9617 36.7312 38.3998 35 36.495 35C31.1998 35 25.9045 35 20.5712 35C20.3426 35 20.1141 35 19.8855 35C18.3998 34.9247 17.2569 33.7581 17.295 32.2903C17.3331 30.8226 18.476 29.6559 19.9617 29.6559C23.9998 29.6559 28.0379 29.6559 32.076 29.6559C33.9426 29.6559 35.8093 29.6559 37.6379 29.6559C38.7045 29.6559 38.9331 29.5054 39.276 28.414C39.276 28.3764 39.276 28.3387 39.314 28.3387C35.9617 28.5269 32.6093 28.5269 29.2188 28.4893C27.5045 28.4516 25.7902 28.414 24.076 28.3387C22.4379 28.3011 20.876 28.2635 19.276 27.7742C19.1617 27.7366 19.0855 27.6989 19.0093 27.6613C18.7426 27.6613 18.476 27.6613 18.2093 27.6613C18.2093 27.6989 18.2093 27.7366 18.2474 27.7366C16.3045 28.6774 15.1236 30.2204 15.1998 32.5161C15.2379 34.7742 16.495 36.2043 18.476 37.0323ZM35.2379 38.5C35.2379 37.785 35.7331 37.2581 36.3807 37.2581C37.0664 37.2581 37.6379 37.8226 37.5998 38.5376C37.5998 39.2151 37.0283 39.7796 36.3807 39.7796C35.7712 39.7419 35.276 39.1774 35.2379 38.5ZM20.3426 38.4624C20.3426 37.785 20.876 37.2204 21.5236 37.2204C22.1712 37.2204 22.7045 37.785 22.7426 38.4247C22.7426 39.1022 22.1331 39.7419 21.4855 39.7043C20.8379 39.7419 20.3426 39.1774 20.3426 38.4624Z" fill="#5F9557"/>
<path d="M36.4187 39.7419C37.0664 39.7419 37.5997 39.1774 37.6378 38.5C37.6378 37.7849 37.1045 37.2204 36.4187 37.2204C35.7711 37.2204 35.2759 37.7473 35.2759 38.4624C35.2759 39.1774 35.7711 39.7419 36.4187 39.7419Z" fill="#5F9557"/>
<path d="M20.3428 38.4624C20.3428 39.1398 20.838 39.7043 21.4856 39.7419C22.1333 39.7796 22.7428 39.1398 22.7428 38.4624C22.7428 37.785 22.2094 37.2581 21.5237 37.2581C20.8761 37.2581 20.3428 37.785 20.3428 38.4624Z" fill="#5F9557"/>
<path d="M0.571281 3.80108C1.29509 4.21506 2.32366 4.17742 3.27604 4.13979C4.07604 4.10215 4.99033 4.06452 5.40938 4.32796C6.057 4.77957 6.66652 5.34409 7.31414 5.9086C7.58081 6.13441 7.80938 6.36022 8.07604 6.58602C6.857 8.73118 6.24747 10.9892 6.20938 13.2473C6.20938 15.5054 6.8189 17.6882 7.99985 19.6828C9.44747 22.0538 11.4284 24.086 14.0951 25.8925C16.6094 27.586 19.5046 28.7151 23.2379 29.5054C26.1332 30.1075 29.1808 30.4086 32.3046 30.4462C32.3427 30.4462 32.3808 30.4462 32.4189 30.4462C33.9808 30.4462 35.5427 30.4086 37.0284 30.371C37.5618 30.371 38.0951 30.3333 38.6284 30.3333C39.0856 30.3333 39.4665 30.1452 39.6951 29.8065C39.9237 29.4677 39.9999 29.0161 39.8475 28.5645C39.657 27.9247 39.5046 27.2473 39.3141 26.6075C38.9332 25.1774 38.5522 23.672 38.0951 22.2419C36.2665 16.2204 34.0951 11.6667 31.276 7.94086C28.9903 4.89248 26.2094 2.59678 22.9713 1.12903C20.7237 0.112905 18.5141 -0.18817 16.076 0.188174C13.6379 0.639787 11.276 2.1828 9.48557 4.51613C6.43795 1.05377 5.257 0.940862 2.89509 1.01613C2.59033 1.05377 2.28557 1.05377 1.94271 1.05377C0.495091 1.05377 0.114138 1.88172 0.0379479 2.25807C-0.114433 2.86022 0.152234 3.53764 0.571281 3.80108ZM33.1046 27.9624C29.6379 27.9624 26.5903 27.6613 23.7713 27.0591C21.1046 26.4946 18.857 25.7043 16.9141 24.6505C13.8665 22.9946 11.6189 20.9247 10.0189 18.2527C9.18081 16.8979 8.72366 15.3925 8.64747 13.7366C8.57128 12.2312 8.83795 10.7634 9.52366 9.14516C9.63795 8.88172 9.75223 8.65592 9.86652 8.39248C10.2856 8.80645 10.7046 9.25807 11.0856 9.70968L11.4665 10.1237C14.476 13.3602 17.5618 16.7097 21.0284 19.6075C24.076 22.1667 26.7808 23.8602 29.4856 24.9516C30.2856 25.2527 31.0856 25.4785 31.8475 25.7043C32.0379 25.7419 32.2284 25.8172 32.3808 25.8548C32.7237 25.9677 33.1046 25.8925 33.3713 25.7043C33.6379 25.5161 33.8284 25.2527 33.9046 24.914C34.0189 24.1989 33.6379 23.5968 32.9141 23.4086C32.8379 23.371 32.7237 23.371 32.6475 23.3333C32.5332 23.2957 32.3808 23.2581 32.2665 23.2581C29.8284 22.6183 27.4665 21.3763 24.7618 19.4194C22.1713 17.5 19.5808 15.1667 16.8379 12.2688L15.7713 11.1398L19.9618 10.1237C18.5141 10.3871 17.1046 10.6882 15.7332 11.1022L15.4284 10.8011C14.0189 9.2957 12.6094 7.82796 11.1999 6.32258C11.3141 6.17204 11.4284 6.05914 11.5427 5.9086C11.7713 5.64516 11.9999 5.38172 12.2284 5.11828C13.4475 3.87635 14.8189 3.04839 16.3046 2.70968C18.0951 2.2957 19.9237 2.48387 21.8665 3.31183C25.2189 4.74194 27.9999 7.15054 30.3237 10.6129C32.2284 13.4355 33.8284 16.7473 35.1618 20.6989C35.657 22.2043 36.1141 23.7473 36.5713 25.2903C36.7237 25.7796 36.8379 26.2688 36.9903 26.7204C37.1046 27.0968 37.1808 27.4731 37.2951 27.8871C36.9522 27.8871 36.6475 27.9247 36.3046 27.9247C35.2379 27.9247 34.1713 27.9624 33.1046 27.9624Z" fill="#5F9557"/>
<path d="M24.114 21.1129C24.1902 21.1129 24.2283 21.1129 24.3044 21.0753L31.1235 19.2312C31.5425 19.1183 31.7711 18.7043 31.6568 18.2527C31.5425 17.8387 31.1235 17.5753 30.7425 17.6882L23.9235 19.5323C23.5044 19.6452 23.2759 20.0592 23.3902 20.5108C23.4663 20.8495 23.8092 21.1129 24.114 21.1129Z" fill="#5F9557"/>
<path d="M17.3332 23.0699C17.7522 23.0699 18.0951 22.7312 18.0951 22.2796L18.2855 14.9032C18.2855 14.4516 17.9808 14.1129 17.5617 14.0753C17.1427 14.0753 16.7998 14.414 16.7998 14.8656L16.6093 22.2419C16.5712 22.6935 16.9141 23.0699 17.3332 23.0699Z" fill="#5F9557"/>
</g>
<defs>
<clipPath id="clip0">
<rect width="40" height="42" fill="white"/>
</clipPath>
</defs>
</svg>
