<?xml version="1.0" encoding="utf-8"?>
<!-- Generator: Adobe Illustrator 22.0.0, SVG Export Plug-In . SVG Version: 6.00 Build 0)  -->
<svg version="1.1" id="Layer_1" xmlns="http://www.w3.org/2000/svg" xmlns:xlink="http://www.w3.org/1999/xlink" x="0px" y="0px"
	 viewBox="0 0 40 40" style="enable-background:new 0 0 40 40;" xml:space="preserve">
<style type="text/css">
	.st0{fill:#FFFFFF;}
	.st1{fill:none;stroke:#000000;stroke-width:9;stroke-linecap:round;stroke-miterlimit:10;}
	.st2{fill:none;stroke:#000000;stroke-width:7;stroke-linecap:round;stroke-miterlimit:10;}
	.st3{fill:#009245;}
	.st4{fill:#2B2728;}
	.st5{fill:#B6A19E;}
	.st6{fill:#6B648B;}
	.st7{fill:none;stroke:#000000;stroke-width:8;stroke-miterlimit:10;}
	.st8{fill:none;}
	.st9{fill:#165462;}
	.st10{fill:#6AA465;}
	.st11{fill:none;stroke:#000000;stroke-width:11;stroke-linecap:round;stroke-miterlimit:10;}
	.st12{fill:#A7B3A5;}
	.st13{fill:#B6DABF;}
	.st14{fill:#4D822B;}
	.st15{fill:#4D4D4D;}
	.st16{fill:#2C4C3B;}
	.st17{fill:#5F9557;}
	.st18{fill:#2D794A;}
	.st19{fill:#03514C;}
	.st20{fill:#57BC90;}
	.st21{clip-path:url(#SVGID_8_);}
	.st22{clip-path:url(#SVGID_18_);}
	.st23{clip-path:url(#SVGID_22_);}
	.st24{fill:#333333;}
	.st25{fill:#851C81;}
	.st26{fill:#03514B;}
	.st27{clip-path:url(#SVGID_26_);}
	.st28{fill:#828E80;}
	.st29{fill:#64CC56;}
	.st30{fill:#5BBD4F;}
	.st31{fill:none;stroke:#5F9557;stroke-width:2;stroke-miterlimit:10;}
	.st32{opacity:0;fill:#161616;}
	.st33{opacity:0.32;fill:#161616;}
	.st34{fill:#00A500;}
	.st35{fill:#2A5C83;}
	.st36{fill:#C72127;}
	.st37{fill:#43619B;}
</style>
<g>
	<g id="_1_1_">
		<path class="st17" d="M33.9,13.2H6.3c-0.6,0-1.1-0.4-1.1-1C5.1,11.5,5.6,11,6.2,11h27.6c0.6,0,1.1,0.4,1.1,1
			C35.1,12.6,34.5,13.2,33.9,13.2z"/>
		<path class="st17" d="M33.9,21.6H6.3c-0.6,0-1.1-0.4-1.1-1c-0.1-0.7,0.5-1.2,1.1-1.2h27.6c0.6,0,1.1,0.4,1.1,1
			C35.1,21,34.5,21.6,33.9,21.6z"/>
		<path class="st17" d="M33.9,30H6.3c-0.6,0-1.1-0.4-1.1-1c-0.1-0.7,0.5-1.2,1.1-1.2h27.6c0.6,0,1.1,0.4,1.1,1
			C35.1,29.4,34.5,30,33.9,30z"/>
	</g>
</g>
</svg>
